<svg width="14" height="12" viewBox="0 0 14 12" fill="none" xmlns="http://www.w3.org/2000/svg">
<path d="M1.23615 0.0137994C1.24175 0.0220791 1.27255 0.0593376 1.30195 0.0952162C1.51614 0.346366 1.67714 0.75483 1.76393 1.26955C1.82133 1.60764 1.82413 1.71389 1.82413 3.00276V4.20331H1.23895C0.704174 4.20331 0.642576 4.20055 0.53758 4.17985C0.372386 4.14535 0.201592 4.0529 0.0867968 3.93422C-0.00419985 3.83901 -0.00139995 3.83349 0.00419984 4.1219C0.0111996 4.36063 0.0139995 4.38684 0.0489982 4.51656C0.104996 4.72217 0.181993 4.87535 0.298189 5.01196C0.456383 5.19963 0.617377 5.30451 0.846968 5.37489C0.895967 5.38868 0.999563 5.3942 1.36635 5.39696L1.82413 5.40386V6.00138V6.60028L1.17876 6.59614L0.53058 6.592L0.418584 6.54784C0.285589 6.4954 0.225392 6.45676 0.0951964 6.34223L0 6.25805L0.00559979 6.52162C0.0125995 6.76587 0.0139995 6.79347 0.0489982 6.91766C0.170794 7.35649 0.464783 7.66973 0.852568 7.77185C0.949165 7.79807 0.986963 7.79945 1.39155 7.80497L1.82413 7.81049V9.04692C1.82413 9.79347 1.81993 10.3441 1.81293 10.4379C1.80593 10.5235 1.78353 10.6835 1.76393 10.7953C1.67294 11.31 1.50914 11.6978 1.27395 11.9489L1.22635 12H3.59367C5.00901 12 6.06737 11.9945 6.22277 11.9876C6.49576 11.9738 7.10473 11.9144 7.24193 11.8855C7.28533 11.8772 7.36652 11.8648 7.41972 11.8565C7.53312 11.8399 7.72071 11.8013 7.9909 11.7337C8.37169 11.6398 8.71887 11.5225 9.05906 11.3735C9.16546 11.3266 9.47065 11.1734 9.55184 11.1251C9.59524 11.1003 9.64704 11.0699 9.66664 11.0603C9.72124 11.0313 9.81223 10.9733 9.94523 10.8795C10.011 10.8326 10.0768 10.787 10.0908 10.7774C10.1496 10.7387 10.3526 10.5718 10.445 10.4876C10.7964 10.1688 11.0904 9.81417 11.3186 9.43468C11.3508 9.37949 11.3928 9.31049 11.411 9.28151C11.4572 9.20423 11.6476 8.81785 11.6658 8.75989C11.6742 8.73367 11.6854 8.70607 11.691 8.70055C11.7274 8.65363 11.9374 8.0023 11.9626 7.86017C11.971 7.81463 11.9752 7.80773 12.0102 7.80083C12.0326 7.79669 12.3587 7.79669 12.7353 7.79945C13.4885 7.80497 13.4885 7.80497 13.6551 7.88086C13.7489 7.92364 13.7769 7.94296 13.8805 8.03542C14.0163 8.15547 14.0037 8.17479 13.9953 7.87396C13.9897 7.69733 13.9827 7.58832 13.9701 7.54416C13.9225 7.37443 13.9113 7.33855 13.8693 7.25299C13.7321 6.95768 13.5025 6.74655 13.2085 6.64581L13.0937 6.60442L12.6261 6.5989L12.1599 6.592L12.1655 6.43054C12.1711 6.21803 12.1711 5.79715 12.1641 5.5805L12.1585 5.40662L12.7829 5.40386C13.3177 5.4011 13.4171 5.40386 13.4759 5.41904C13.6523 5.46734 13.7713 5.53358 13.9169 5.66467L13.9981 5.73919V5.53496C13.9981 5.29209 13.9855 5.18445 13.9351 5.02438C13.8357 4.70009 13.6397 4.4586 13.3597 4.30957C13.1777 4.21297 13.1665 4.21021 12.5407 4.20607C12.1739 4.20331 11.9822 4.19779 11.9724 4.18951C11.964 4.18123 11.957 4.16743 11.957 4.15639C11.957 4.14535 11.936 4.05842 11.908 3.96458C11.5804 2.82337 10.9686 1.91674 10.074 1.24471C9.95223 1.15225 9.65404 0.957682 9.53364 0.891444C9.48745 0.865225 9.43705 0.837627 9.42445 0.829347C9.36565 0.797608 9.02826 0.634775 8.94427 0.600276C8.89387 0.578197 8.82807 0.550598 8.79867 0.539558C8.30449 0.328427 7.47572 0.128335 6.84294 0.0662374C6.73935 0.0565777 6.60215 0.0413983 6.53916 0.0358786C6.25357 0.00413983 5.85738 0 3.60767 0C1.70654 0 1.22915 0.00413983 1.23615 0.0137994ZM5.86578 0.611316C6.33896 0.638914 6.63015 0.674793 6.97034 0.75621C8.0091 0.99908 8.73987 1.51242 9.27045 2.37075C9.31945 2.45078 9.52664 2.86753 9.55744 2.9517C9.70444 3.34223 9.77584 3.57406 9.83883 3.88041C9.85423 3.95492 9.87523 4.05428 9.88503 4.1012C9.89483 4.14673 9.89903 4.18951 9.89483 4.19365C9.88783 4.19917 8.48228 4.20193 6.76875 4.20055L3.65386 4.19779L3.64966 2.42456C3.64826 1.45032 3.64966 0.640294 3.65386 0.625115L3.65946 0.598896H4.65483C5.20081 0.598896 5.74679 0.604416 5.86578 0.611316ZM10.0306 5.44526C10.0404 5.5046 10.0404 6.51196 10.0306 6.56164L10.0222 6.5989L6.83734 6.59614L3.65386 6.592L3.65106 6.0069C3.64826 5.68537 3.65106 5.41766 3.65386 5.41214C3.65806 5.40524 5.01461 5.4011 6.84154 5.4011H10.0222L10.0306 5.44526ZM9.88783 7.81463C9.89483 7.83533 9.86123 8.00506 9.79263 8.28105C9.71424 8.59154 9.60784 8.90478 9.50004 9.13661C9.44685 9.25529 9.31385 9.51196 9.28165 9.56026C9.26625 9.58234 9.22146 9.65271 9.18226 9.71481C8.93027 10.104 8.57048 10.4586 8.1603 10.7208C8.0105 10.8146 7.70251 10.9747 7.61992 10.9995C7.60312 11.0037 7.58492 11.012 7.57792 11.0175C7.56812 11.0258 7.44072 11.0727 7.29233 11.1251C7.01934 11.2203 6.49996 11.3238 6.08277 11.3666C5.81258 11.3928 5.76918 11.3942 4.72902 11.3942H3.65246V9.60442V7.81325L6.74495 7.80773C8.44588 7.80497 9.84723 7.80083 9.85843 7.79807C9.87103 7.79669 9.88363 7.80497 9.88783 7.81463Z" fill="#8B31E1"/>
</svg>
