<svg width="23" height="23" viewBox="0 0 23 23" fill="none" xmlns="http://www.w3.org/2000/svg">
<rect x="1.31348" y="1" width="21" height="21" rx="10.5" fill="#8B31E1"/>
<rect x="1.31348" y="1" width="21" height="21" rx="10.5" stroke="#8B31E1"/>
<path d="M10.0637 11.9375C10.4137 10.1 10.8949 9.61875 12.7324 9.26875C12.9512 9.225 13.0824 9.05 13.0824 8.83125C13.0824 8.6125 12.9512 8.4375 12.7324 8.39375C10.8949 8.04375 10.4137 7.5625 10.0637 5.725C10.0199 5.50625 9.84492 5.375 9.62617 5.375C9.40742 5.375 9.23242 5.50625 9.18867 5.725C8.83867 7.5625 8.35742 8.04375 6.51992 8.39375C6.34492 8.4375 6.16992 8.6125 6.16992 8.83125C6.16992 9.05 6.30117 9.225 6.51992 9.26875C8.35742 9.61875 8.83867 10.1 9.18867 11.9375C9.23242 12.1562 9.40742 12.2875 9.62617 12.2875C9.84492 12.2875 10.0199 12.1125 10.0637 11.9375Z" fill="white"/>
<path d="M14.4389 15C13.2139 14.7375 12.9514 14.475 12.6889 13.25C12.6451 13.0313 12.4701 12.9 12.2514 12.9C12.0326 12.9 11.8576 13.0313 11.8139 13.25C11.5514 14.475 11.2889 14.7375 10.0639 15C9.84512 15.0438 9.71387 15.2188 9.71387 15.4375C9.71387 15.6563 9.84512 15.8313 10.0639 15.875C11.2889 16.1375 11.5514 16.4 11.8139 17.625C11.8576 17.8438 12.0326 17.975 12.2514 17.975C12.4701 17.975 12.6451 17.8438 12.6889 17.625C12.9514 16.4 13.2139 16.1375 14.4389 15.875C14.6576 15.8313 14.7889 15.6563 14.7889 15.4375C14.7889 15.2188 14.6139 15.0438 14.4389 15Z" fill="white"/>
<path d="M17.5889 10.625C16.6264 10.45 16.4076 10.2313 16.2326 9.26875C16.1889 9.05 16.0139 8.91875 15.7951 8.91875C15.5764 8.91875 15.4014 9.05 15.3576 9.26875C15.1826 10.2313 14.9639 10.45 14.0014 10.625C13.7826 10.6688 13.6514 10.8438 13.6514 11.0625C13.6514 11.2813 13.7826 11.4563 14.0014 11.5C14.9639 11.675 15.1826 11.8938 15.3576 12.8563C15.4014 13.075 15.5764 13.2063 15.7951 13.2063C16.0139 13.2063 16.1889 13.075 16.2326 12.8563C16.4076 11.8938 16.6264 11.675 17.5889 11.5C17.8076 11.4563 17.9389 11.2813 17.9389 11.0625C17.9389 10.8438 17.8076 10.6688 17.5889 10.625Z" fill="white"/>
<path d="M7.30723 14.2563C7.17598 14.125 7.00098 14.0813 6.82598 14.1688C6.78223 14.1688 6.73848 14.2125 6.69473 14.2563C6.65098 14.3 6.60723 14.3438 6.60723 14.3875C6.56348 14.4313 6.56348 14.5188 6.56348 14.5625C6.56348 14.6063 6.56348 14.6938 6.60723 14.7375C6.65098 14.7813 6.65098 14.825 6.69473 14.8688C6.73848 14.9125 6.78223 14.9563 6.82598 14.9563C6.86973 15 6.95723 15 7.00098 15C7.04473 15 7.13223 15 7.17598 14.9563C7.21973 14.9125 7.26348 14.9125 7.30723 14.8688C7.35098 14.825 7.39473 14.7813 7.39473 14.7375C7.43848 14.6938 7.43848 14.6063 7.43848 14.5625C7.43848 14.5188 7.43848 14.4313 7.39473 14.3875C7.39473 14.3438 7.35098 14.3 7.30723 14.2563Z" fill="white"/>
<path d="M17.0635 7.5625C17.1947 7.5625 17.2822 7.51875 17.3697 7.43125C17.4572 7.34375 17.501 7.25625 17.501 7.125C17.501 6.99375 17.4572 6.90625 17.3697 6.81875C17.326 6.775 17.2822 6.73125 17.2385 6.73125C17.151 6.6875 17.0197 6.6875 16.8885 6.73125C16.8447 6.73125 16.801 6.775 16.7572 6.81875C16.6697 6.90625 16.626 6.99375 16.626 7.125C16.626 7.25625 16.6697 7.34375 16.7572 7.43125C16.8447 7.51875 16.9322 7.5625 17.0635 7.5625Z" fill="white"/>
</svg>
