<svg width="22" height="23" viewBox="0 0 22 23" fill="none" xmlns="http://www.w3.org/2000/svg">
<rect x="0.5" y="1" width="21" height="21" rx="10.5" fill="white"/>
<rect x="0.5" y="1" width="21" height="21" rx="10.5" stroke="white"/>
<path d="M9.25019 11.9375C9.60019 10.1 10.0814 9.61875 11.9189 9.26875C12.1377 9.225 12.2689 9.05 12.2689 8.83125C12.2689 8.6125 12.1377 8.4375 11.9189 8.39375C10.0814 8.04375 9.60019 7.5625 9.25019 5.725C9.20644 5.50625 9.03145 5.375 8.8127 5.375C8.59395 5.375 8.41895 5.50625 8.3752 5.725C8.0252 7.5625 7.54395 8.04375 5.70645 8.39375C5.53145 8.4375 5.35645 8.6125 5.35645 8.83125C5.35645 9.05 5.4877 9.225 5.70645 9.26875C7.54395 9.61875 8.0252 10.1 8.3752 11.9375C8.41895 12.1562 8.59395 12.2875 8.8127 12.2875C9.03145 12.2875 9.20644 12.1125 9.25019 11.9375Z" fill="#8B31E1"/>
<path d="M13.6254 15C12.4004 14.7375 12.1379 14.475 11.8754 13.25C11.8316 13.0313 11.6566 12.9 11.4379 12.9C11.2191 12.9 11.0441 13.0313 11.0004 13.25C10.7379 14.475 10.4754 14.7375 9.25039 15C9.03164 15.0438 8.90039 15.2188 8.90039 15.4375C8.90039 15.6563 9.03164 15.8313 9.25039 15.875C10.4754 16.1375 10.7379 16.4 11.0004 17.625C11.0441 17.8438 11.2191 17.975 11.4379 17.975C11.6566 17.975 11.8316 17.8438 11.8754 17.625C12.1379 16.4 12.4004 16.1375 13.6254 15.875C13.8441 15.8313 13.9754 15.6563 13.9754 15.4375C13.9754 15.2188 13.8004 15.0438 13.6254 15Z" fill="#8B31E1"/>
<path d="M16.7754 10.625C15.8129 10.45 15.5941 10.2313 15.4191 9.26875C15.3754 9.05 15.2004 8.91875 14.9816 8.91875C14.7629 8.91875 14.5879 9.05 14.5441 9.26875C14.3691 10.2313 14.1504 10.45 13.1879 10.625C12.9691 10.6688 12.8379 10.8438 12.8379 11.0625C12.8379 11.2813 12.9691 11.4563 13.1879 11.5C14.1504 11.675 14.3691 11.8938 14.5441 12.8563C14.5879 13.075 14.7629 13.2063 14.9816 13.2063C15.2004 13.2063 15.3754 13.075 15.4191 12.8563C15.5941 11.8938 15.8129 11.675 16.7754 11.5C16.9941 11.4563 17.1254 11.2813 17.1254 11.0625C17.1254 10.8438 16.9941 10.6688 16.7754 10.625Z" fill="#8B31E1"/>
<path d="M6.49375 14.2563C6.3625 14.125 6.1875 14.0813 6.0125 14.1688C5.96875 14.1688 5.925 14.2125 5.88125 14.2563C5.8375 14.3 5.79375 14.3438 5.79375 14.3875C5.75 14.4313 5.75 14.5188 5.75 14.5625C5.75 14.6063 5.75 14.6938 5.79375 14.7375C5.8375 14.7813 5.8375 14.825 5.88125 14.8688C5.925 14.9125 5.96875 14.9563 6.0125 14.9563C6.05625 15 6.14375 15 6.1875 15C6.23125 15 6.31875 15 6.3625 14.9563C6.40625 14.9125 6.45 14.9125 6.49375 14.8688C6.5375 14.825 6.58125 14.7813 6.58125 14.7375C6.625 14.6938 6.625 14.6063 6.625 14.5625C6.625 14.5188 6.625 14.4313 6.58125 14.3875C6.58125 14.3438 6.5375 14.3 6.49375 14.2563Z" fill="#8B31E1"/>
<path d="M16.25 7.5625C16.3813 7.5625 16.4688 7.51875 16.5563 7.43125C16.6438 7.34375 16.6875 7.25625 16.6875 7.125C16.6875 6.99375 16.6438 6.90625 16.5563 6.81875C16.5125 6.775 16.4687 6.73125 16.425 6.73125C16.3375 6.6875 16.2063 6.6875 16.075 6.73125C16.0313 6.73125 15.9875 6.775 15.9437 6.81875C15.8562 6.90625 15.8125 6.99375 15.8125 7.125C15.8125 7.25625 15.8562 7.34375 15.9437 7.43125C16.0312 7.51875 16.1188 7.5625 16.25 7.5625Z" fill="#8B31E1"/>
</svg>
