<svg width="25" height="18" viewBox="0 0 25 18" fill="none" xmlns="http://www.w3.org/2000/svg">
<g clip-path="url(#clip0_441_544)">
<path d="M5.95456 17.9116V8.68687L3.07878 6.06959L0.5 4.61719V16.2837C0.5 17.1845 1.23359 17.9116 2.13641 17.9116H5.95456Z" fill="#4285F4"/>
<path d="M19.0459 17.9115H22.8641C23.7696 17.9115 24.5005 17.1817 24.5005 16.2836V4.61719L21.5796 6.28074L19.0459 8.68677V17.9115Z" fill="#34A853"/>
<path d="M5.95479 8.68646L5.56348 5.08208L5.95479 1.63232L12.5002 6.51601L19.0457 1.63232L19.4834 4.89583L19.0457 8.68646L12.5002 13.5701L5.95479 8.68646Z" fill="#EA4335"/>
<path d="M19.0459 1.63247V8.6866L24.5005 4.61692V2.44639C24.5005 0.433277 22.1905 -0.71434 20.5733 0.492966L19.0459 1.63247Z" fill="#FBBC04"/>
<path d="M0.5 4.61697L3.00866 6.48878L5.95456 8.68665V1.63251L4.42719 0.493009C2.80719 -0.71439 0.5 0.43332 0.5 2.44634V4.61697Z" fill="#C5221F"/>
</g>
<defs>
<clipPath id="clip0_441_544">
<rect width="24" height="18" fill="white" transform="translate(0.5)"/>
</clipPath>
</defs>
</svg>
