<svg width="18" height="12" viewBox="0 0 18 12" fill="none" xmlns="http://www.w3.org/2000/svg">
<path d="M18 6.00472C18 5.45526 17.5547 5.00975 17.0053 5.00945L1.00028 5.00056C0.44793 5.00025 0 5.44793 0 6.00028C0 6.55241 0.447591 7 0.999722 7H17.0047C17.5544 7 18 6.5544 18 6.00472ZM0 11C0 10.4477 0.447715 10 1 10H11C11.5523 10 12 10.4477 12 11C12 11.5523 11.5523 12 11 12H1C0.447715 12 0 11.5523 0 11ZM18 1.00028C18 0.44784 17.5522 0 16.9997 0H1.00472C0.449829 0 0 0.449829 0 1.00472C0 1.55983 0.450169 2.00975 1.00528 2.00944L17.0003 2.00056C17.5525 2.00025 18 1.5525 18 1.00028Z" fill="#475467"/>
</svg>
