<svg width="24" height="25" viewBox="0 0 24 25" fill="none" xmlns="http://www.w3.org/2000/svg">
<mask id="mask0_800_312" style="mask-type:alpha" maskUnits="userSpaceOnUse" x="0" y="0" width="24" height="25">
<rect y="0.5" width="24" height="24" fill="#D9D9D9"/>
</mask>
<g mask="url(#mask0_800_312)">
<path d="M8.41477 14.1364H7.13636L8.5767 9.77272H10.196L11.6364 14.1364H10.358L9.40341 10.9744H9.36932L8.41477 14.1364ZM8.17614 12.4148H10.5795V13.3011H8.17614V12.4148ZM13.7356 14.1364H12.0566V9.77272H13.7186C14.1674 9.77272 14.5552 9.86008 14.8819 10.0348C15.21 10.2081 15.4629 10.4581 15.6404 10.7848C15.8194 11.1101 15.9089 11.5 15.9089 11.9545C15.9089 12.4091 15.8201 12.7997 15.6426 13.1264C15.465 13.4517 15.2136 13.7017 14.8883 13.8764C14.563 14.0497 14.1788 14.1364 13.7356 14.1364ZM13.2413 13.1307H13.693C13.9089 13.1307 14.0929 13.0959 14.2449 13.0263C14.3983 12.9567 14.5147 12.8366 14.5943 12.6662C14.6752 12.4957 14.7157 12.2585 14.7157 11.9545C14.7157 11.6506 14.6745 11.4133 14.5922 11.2429C14.5112 11.0724 14.3919 10.9524 14.2342 10.8828C14.0779 10.8132 13.8862 10.7784 13.6589 10.7784H13.2413V13.1307Z" fill="white"/>
<path d="M11.6834 21.6818C10.3694 21.6818 9.13431 21.4325 7.97814 20.9338C6.82197 20.4352 5.81631 19.7584 4.96114 18.9036C4.10597 18.0487 3.42889 17.0435 2.92989 15.8878C2.43106 14.7322 2.18164 13.4974 2.18164 12.1836C2.18164 10.8696 2.43097 9.63448 2.92964 8.47832C3.42831 7.32215 4.10506 6.31648 4.95989 5.46132C5.81472 4.60615 6.81997 3.92907 7.97564 3.43007C9.13131 2.93123 10.3661 2.68182 11.6799 2.68182C12.9939 2.68182 14.229 2.93115 15.3851 3.42982C16.5413 3.92848 17.547 4.60523 18.4021 5.46007C19.2573 6.3149 19.9344 7.32015 20.4334 8.47582C20.9322 9.63148 21.1816 10.8662 21.1816 12.1801C21.1816 13.4941 20.9323 14.7291 20.4336 15.8853C19.935 17.0415 19.2582 18.0472 18.4034 18.9023C17.5486 19.7575 16.5433 20.4346 15.3876 20.9336C14.232 21.4324 12.9972 21.6818 11.6834 21.6818ZM11.6816 20.1818C13.915 20.1818 15.8066 19.4068 17.3566 17.8568C18.9066 16.3068 19.6816 14.4151 19.6816 12.1818C19.6816 9.94848 18.9066 8.05682 17.3566 6.50682C15.8066 4.95682 13.915 4.18182 11.6816 4.18182C9.44831 4.18182 7.55664 4.95682 6.00664 6.50682C4.45664 8.05682 3.68164 9.94848 3.68164 12.1818C3.68164 14.4151 4.45664 16.3068 6.00664 17.8568C7.55664 19.4068 9.44831 20.1818 11.6816 20.1818Z" fill="white"/>
<path d="M15.1343 7.8597C14.8414 8.15259 14.8414 8.62747 15.1343 8.92036C15.4272 9.21325 15.9021 9.21325 16.195 8.92036L15.6647 8.39003L15.1343 7.8597ZM17.5547 6.5L17.0244 5.96967L15.1343 7.8597L15.6647 8.39003L16.195 8.92036L18.085 7.03033L17.5547 6.5Z" fill="white"/>
<path d="M8.30135 16.8485C8.59424 16.5556 8.59424 16.0807 8.30135 15.7879C8.00846 15.495 7.53358 15.495 7.24069 15.7879L7.77102 16.3182L8.30135 16.8485ZM5.84668 18.2425L6.37701 18.7729L8.30135 16.8485L7.77102 16.3182L7.24069 15.7879L5.31635 17.7122L5.84668 18.2425Z" fill="white"/>
</g>
</svg>
