<svg width="22" height="11" viewBox="0 0 22 11" fill="none" xmlns="http://www.w3.org/2000/svg">
<path d="M5.5 7.11525C5.05583 7.11525 4.67558 6.95708 4.35925 6.64075C4.04292 6.32442 3.88475 5.94417 3.88475 5.5C3.88475 5.05583 4.04292 4.67558 4.35925 4.35925C4.67558 4.04292 5.05583 3.88475 5.5 3.88475C5.94417 3.88475 6.32442 4.04292 6.64075 4.35925C6.95708 4.67558 7.11525 5.05583 7.11525 5.5C7.11525 5.94417 6.95708 6.32442 6.64075 6.64075C6.32442 6.95708 5.94417 7.11525 5.5 7.11525ZM5.5 11C3.97217 11 2.67358 10.4655 1.60425 9.3965C0.53475 8.3275 0 7.02942 0 5.50225C0 3.97508 0.53475 2.67625 1.60425 1.60575C2.67358 0.535249 3.97217 0 5.5 0C6.57183 0 7.54108 0.276583 8.40775 0.82975C9.27442 1.38308 9.93592 2.1065 10.3923 3H19.0173C19.1351 3 19.2492 3.02183 19.3595 3.0655C19.4698 3.109 19.5718 3.17758 19.6653 3.27125L21.2615 4.86725C21.3552 4.96092 21.4212 5.06008 21.4595 5.16475C21.498 5.26942 21.5173 5.38158 21.5173 5.50125C21.5173 5.62092 21.498 5.73267 21.4595 5.8365C21.4212 5.94033 21.3552 6.03908 21.2615 6.13275L18.6155 8.76925C18.5405 8.84675 18.4506 8.90875 18.3458 8.95525C18.2409 9.00175 18.1366 9.03008 18.0328 9.04025C17.9289 9.05058 17.8251 9.04067 17.7213 9.0105C17.6174 8.98033 17.5187 8.93 17.425 8.8595L16.1923 7.93275L14.7962 8.96925C14.7192 9.02942 14.6372 9.073 14.55 9.1C14.4628 9.12683 14.3724 9.14025 14.2788 9.14025C14.1853 9.14025 14.0923 9.12525 14 9.09525C13.9077 9.06508 13.8231 9.02308 13.7462 8.96925L12.3365 8H10.3923C9.93592 8.88717 9.27442 9.60892 8.40775 10.1652C7.54108 10.7218 6.57183 11 5.5 11ZM5.5 9.5C6.459 9.5 7.28942 9.21025 7.99125 8.63075C8.69325 8.05125 9.15133 7.341 9.3655 6.5H12.8077L14.248 7.49625C14.2417 7.49625 14.2401 7.49875 14.2432 7.50375C14.2464 7.50892 14.248 7.50642 14.248 7.49625L16.202 6.06725L17.9 7.3655L19.7655 5.5L18.7655 4.5H9.3655C9.15133 3.659 8.69325 2.94875 7.99125 2.36925C7.28942 1.78975 6.459 1.5 5.5 1.5C4.4 1.5 3.45833 1.89167 2.675 2.675C1.89167 3.45833 1.5 4.4 1.5 5.5C1.5 6.6 1.89167 7.54167 2.675 8.325C3.45833 9.10833 4.4 9.5 5.5 9.5Z" fill="#8C8C8C"/>
</svg>
