<svg width="20" height="15" viewBox="0 0 20 15" fill="none" xmlns="http://www.w3.org/2000/svg">
<path d="M2.45472 15C1.94956 15 1.52197 14.825 1.17197 14.475C0.821973 14.125 0.646973 13.6974 0.646973 13.1923V1.80775C0.646973 1.30258 0.821973 0.875 1.17197 0.525C1.52197 0.175 1.94956 0 2.45472 0H17.8392C18.3444 0 18.772 0.175 19.122 0.525C19.472 0.875 19.647 1.30258 19.647 1.80775V13.1923C19.647 13.6974 19.472 14.125 19.122 14.475C18.772 14.825 18.3444 15 17.8392 15H2.45472ZM18.147 2.94225L10.6335 7.752C10.5566 7.7955 10.4771 7.82975 10.395 7.85475C10.313 7.87975 10.2303 7.89225 10.147 7.89225C10.0636 7.89225 9.98097 7.87975 9.89897 7.85475C9.81681 7.82975 9.73731 7.7955 9.66047 7.752L2.14697 2.94225V13.1923C2.14697 13.2821 2.17581 13.3558 2.23347 13.4135C2.29114 13.4712 2.36489 13.5 2.45472 13.5H17.8392C17.9291 13.5 18.0028 13.4712 18.0605 13.4135C18.1181 13.3558 18.147 13.2821 18.147 13.1923V2.94225ZM10.147 6.5L17.9932 1.5H2.30072L10.147 6.5ZM2.14697 3.173V2.02975V2.0595V2.02775V3.173Z" fill="#8C8C8C"/>
</svg>
