<svg width="20" height="19" viewBox="0 0 20 19" fill="none" xmlns="http://www.w3.org/2000/svg">
<path d="M9 15.5C10.9333 15.5 12.5833 14.8193 13.95 13.4578C15.3167 12.0963 16 10.4437 16 8.5C16 6.56667 15.3167 4.91667 13.95 3.55C12.5833 2.18333 10.9333 1.5 9 1.5C7.05633 1.5 5.40375 2.18333 4.04225 3.55C2.68075 4.91667 2 6.56667 2 8.5C2 10.4437 2.68075 12.0963 4.04225 13.4578C5.40375 14.8193 7.05633 15.5 9 15.5ZM9 12.3463C7.82567 12.3463 6.74042 12.0366 5.74425 11.4173C4.74808 10.7981 3.96475 9.97117 3.39425 8.9365C3.31725 8.79933 3.27875 8.65383 3.27875 8.5C3.27875 8.34617 3.31725 8.20067 3.39425 8.0635C3.96475 7.02883 4.74967 6.20192 5.749 5.58275C6.74833 4.96342 7.832 4.65375 9 4.65375C10.168 4.65375 11.2475 4.966 12.2385 5.5905C13.2295 6.21483 14.0103 7.03917 14.5808 8.0635C14.6578 8.20067 14.6963 8.34617 14.6963 8.5C14.6963 8.65383 14.6578 8.79933 14.5808 8.9365C14.0103 9.97117 13.2295 10.7981 12.2385 11.4173C11.2475 12.0366 10.168 12.3463 9 12.3463ZM9 11.1538C9.94867 11.1538 10.8224 10.9185 11.6213 10.448C12.4199 9.9775 13.0488 9.32817 13.5078 8.5C13.0488 7.682 12.4199 7.03517 11.6213 6.5595C10.8224 6.084 9.94867 5.84625 9 5.84625C8.041 5.84625 7.16058 6.084 6.35875 6.5595C5.55675 7.03517 4.92625 7.682 4.46725 8.5C4.92625 9.32817 5.55675 9.9775 6.35875 10.448C7.16058 10.9185 8.041 11.1538 9 11.1538ZM9 10C9.41667 10 9.77083 9.85675 10.0625 9.57025C10.3542 9.28375 10.5 8.927 10.5 8.5C10.5 8.08333 10.3542 7.72917 10.0625 7.4375C9.77083 7.14583 9.41667 7 9 7C8.573 7 8.21625 7.14583 7.92975 7.4375C7.64325 7.72917 7.5 8.08333 7.5 8.5C7.5 8.927 7.64325 9.28375 7.92975 9.57025C8.21625 9.85675 8.573 10 9 10ZM9 17C7.8205 17 6.71542 16.7769 5.68475 16.3307C4.65392 15.8846 3.75517 15.2782 2.9885 14.5115C2.22183 13.7448 1.61542 12.8461 1.16925 11.8152C0.723083 10.7846 0.5 9.6795 0.5 8.5C0.5 7.33083 0.723083 6.23083 1.16925 5.2C1.61542 4.16917 2.22183 3.26792 2.9885 2.49625C3.75517 1.72442 4.65392 1.11542 5.68475 0.66925C6.71542 0.223084 7.8205 0 9 0C10.1692 0 11.2692 0.223084 12.3 0.66925C13.3308 1.11542 14.2321 1.72442 15.0038 2.49625C15.7756 3.26792 16.3846 4.16917 16.8308 5.2C17.2769 6.23083 17.5 7.33083 17.5 8.5C17.5 9.541 17.3234 10.5237 16.9703 11.448C16.6169 12.3723 16.1288 13.2102 15.5058 13.9615L18.9828 17.4385C19.1314 17.5872 19.2016 17.7596 19.1933 17.9557C19.1849 18.1519 19.1064 18.3243 18.9578 18.473C18.8089 18.6115 18.6348 18.6807 18.4355 18.6807C18.2362 18.6807 18.0622 18.6115 17.9135 18.473L14.4463 15.021C13.6949 15.6442 12.8571 16.1298 11.9328 16.4778C11.0084 16.8259 10.0308 17 9 17Z" fill="white"/>
</svg>
