<?xml version="1.0" encoding="UTF-8"?>
<svg version="1.1" xmlns="http://www.w3.org/2000/svg" width="500" height="500">
<path d="M0 0 C0.82113281 0.16757813 1.64226562 0.33515625 2.48828125 0.5078125 C9.4050299 1.97253574 15.28318866 3.61267967 21 8 C21.33 8.99 21.66 9.98 22 11 C22.61875 11.12375 23.2375 11.2475 23.875 11.375 C27.02722712 12.30212562 27.39201928 14.1413676 29 17 C30.09287015 18.36329975 31.19849725 19.71641335 32.3125 21.0625 C42.11391925 33.53703358 46.93780788 48.50077939 45.75 64.33203125 C44.0154245 77.38780937 39.43972031 89.78585896 30.234375 99.39453125 C28.82049414 101.23347123 28.4123896 102.73676663 28 105 C27.38125 105.0825 26.7625 105.165 26.125 105.25 C23.82027141 105.79394438 23.82027141 105.79394438 22.9375 108 C22.628125 108.66 22.31875 109.32 22 110 C20.515 110.495 20.515 110.495 19 111 C18.566875 111.45375 18.13375 111.9075 17.6875 112.375 C13.7946868 116.12363494 9.53561378 117.31916082 4.22265625 117.69140625 C1.81446644 117.96025096 1.81446644 117.96025096 -1.12109375 119.0078125 C-5.75565149 120.37367697 -10.3238598 120.3411428 -15.125 120.3125 C-16.04917725 120.30976074 -16.97335449 120.30702148 -17.92553711 120.30419922 C-26.74679511 120.17022882 -35.07363355 119.12867879 -43 115 C-43.61875 114.855625 -44.2375 114.71125 -44.875 114.5625 C-47 114 -47 114 -49.6640625 112.23046875 C-53.06112216 110.55894588 -53.06112216 110.55894588 -56.65625 112.421875 C-57.95158293 113.1741747 -59.23277381 113.95126349 -60.5 114.75 C-65.10563959 117.54129672 -68.57218542 119.26564862 -74 120 C-74.66 120.66 -75.32 121.32 -76 122 C-80.15464295 125.29898565 -84.70016886 127.65218536 -89.375 130.125 C-90.21289062 130.58003906 -91.05078125 131.03507813 -91.9140625 131.50390625 C-96.27923685 133.81689958 -99.98830104 135.59188119 -105 136 C-105 136.66 -105 137.32 -105 138 C-108.70103694 139.99303842 -112.41196907 141.96690949 -116.125 143.9375 C-117.17171875 144.50146484 -118.2184375 145.06542969 -119.296875 145.64648438 C-120.31523437 146.18466797 -121.33359375 146.72285156 -122.3828125 147.27734375 C-123.31496582 147.77484131 -124.24711914 148.27233887 -125.20751953 148.78491211 C-128.16905466 150.0735605 -130.82001672 150.51241682 -134 151 C-136.14549353 151.80440725 -136.14549353 151.80440725 -138.0859375 152.84765625 C-138.78847656 153.20537109 -139.49101562 153.56308594 -140.21484375 153.93164062 C-140.92769531 154.30482422 -141.64054688 154.67800781 -142.375 155.0625 C-143.11105469 155.43955078 -143.84710938 155.81660156 -144.60546875 156.20507812 C-146.40739646 157.12944364 -148.20423099 158.06372614 -150 159 C-150 159.66 -150 160.32 -150 161 C-151.98 161.99 -153.96 162.98 -156 164 C-156 169.94 -156 175.88 -156 182 C-153.525 183.2375 -151.05 184.475 -148.5 185.75 C-143 188.5 -137.5 191.25 -132 194 C-132 194.66 -132 195.32 -132 196 C-130.865625 196.23460937 -129.73125 196.46921875 -128.5625 196.7109375 C-123.61986045 197.94659739 -119.43358805 200.16616434 -115 202.625 C-113.83791016 203.25535156 -113.83791016 203.25535156 -112.65234375 203.8984375 C-110.76385644 204.92428246 -108.88129 205.96101484 -107 207 C-107 207.66 -107 208.32 -107 209 C-105.845 209.24492187 -104.69 209.48984375 -103.5 209.7421875 C-98.92528621 210.88586595 -95.09056698 212.8235478 -91 215.125 C-90.32066406 215.49753906 -89.64132812 215.87007812 -88.94140625 216.25390625 C-87.2897778 217.16113878 -85.64421965 218.07940827 -84 219 C-84 219.66 -84 220.32 -84 221 C-82.865625 221.23460937 -81.73125 221.46921875 -80.5625 221.7109375 C-75.61986045 222.94659739 -71.43358805 225.16616434 -67 227.625 C-65.83791016 228.25535156 -65.83791016 228.25535156 -64.65234375 228.8984375 C-62.76385644 229.92428246 -60.88129 230.96101484 -59 232 C-59 232.66 -59 233.32 -59 234 C-55.04 234.99 -55.04 234.99 -51 236 C-50.67 235.01 -50.34 234.02 -50 233 C-45.99801877 230.58019739 -42.56838768 229.70282887 -38 229 C-36.36986697 228.51699762 -34.74521405 228.01529743 -33.125 227.5 C-21.87548236 224.05283839 -11.39012216 224.60034944 0 227 C1.23169922 227.25136719 1.23169922 227.25136719 2.48828125 227.5078125 C9.4050299 228.97253574 15.28318866 230.61267967 21 235 C21.33 235.99 21.66 236.98 22 238 C22.61875 238.12375 23.2375 238.2475 23.875 238.375 C27.02722712 239.30212562 27.39201928 241.1413676 29 244 C30.09287015 245.36329975 31.19849725 246.71641335 32.3125 248.0625 C43.00684264 261.67348154 47.47059681 278.07455777 45.5 295.21875 C43.42861936 306.74080481 38.41463745 318.03379726 30.19921875 326.46484375 C28.79265318 328.26543095 28.40900941 329.77210167 28 332 C27.38125 332.0825 26.7625 332.165 26.125 332.25 C23.82027141 332.79394438 23.82027141 332.79394438 22.9375 335 C22.628125 335.66 22.31875 336.32 22 337 C21.01 337.33 20.02 337.66 19 338 C18.566875 338.45375 18.13375 338.9075 17.6875 339.375 C13.7946868 343.12363494 9.53561378 344.31916082 4.22265625 344.69140625 C1.81722708 344.95819875 1.81722708 344.95819875 -1.09765625 346.015625 C-5.85533737 347.42255831 -10.57721729 347.25364772 -15.5 347.1875 C-16.86705078 347.1865332 -16.86705078 347.1865332 -18.26171875 347.18554688 C-24.67798068 347.14388284 -30.78680097 346.71398594 -37 345 C-37.70125 344.855625 -38.4025 344.71125 -39.125 344.5625 C-41 344 -41 344 -43 342 C-43.5775 341.87625 -44.155 341.7525 -44.75 341.625 C-48.02154188 340.71623837 -50.312362 339.04494196 -53 337 C-53.68177416 335.67432801 -54.35191436 334.34246312 -55 333 C-55.66 332.855625 -56.32 332.71125 -57 332.5625 C-57.66 332.376875 -58.32 332.19125 -59 332 C-59.68346682 330.34015202 -60.34588315 328.67163195 -61 327 C-61.88501078 325.93130774 -62.80620247 324.89214967 -63.75 323.875 C-72.5507317 313.95534886 -76.19798021 301.9982518 -77 289 C-77.66 289.33 -78.32 289.66 -79 290 C-79 287.69 -79 285.38 -79 283 C-80.1446875 282.690625 -80.1446875 282.690625 -81.3125 282.375 C-86.49898594 280.44105609 -91.19033084 277.7214854 -96 275 C-96 274.34 -96 273.68 -96 273 C-97.134375 272.76539063 -98.26875 272.53078125 -99.4375 272.2890625 C-104.38013955 271.05340261 -108.56641195 268.83383566 -113 266.375 C-114.16208984 265.74464844 -114.16208984 265.74464844 -115.34765625 265.1015625 C-117.23614356 264.07571754 -119.11871 263.03898516 -121 262 C-121 261.34 -121 260.68 -121 260 C-122.155 259.75507813 -123.31 259.51015625 -124.5 259.2578125 C-129.07471379 258.11413405 -132.90943302 256.1764522 -137 253.875 C-137.67933594 253.50246094 -138.35867187 253.12992188 -139.05859375 252.74609375 C-140.7102222 251.83886122 -142.35578035 250.92059173 -144 250 C-144 249.34 -144 248.68 -144 248 C-145.093125 247.79375 -146.18625 247.5875 -147.3125 247.375 C-153.04725765 245.97477192 -157.94153025 242.95697313 -163 240 C-163 239.34 -163 238.68 -163 238 C-163.804375 237.938125 -164.60875 237.87625 -165.4375 237.8125 C-168.79965996 237.04569159 -170.56448276 236.15095757 -173.4375 234.375 C-176.76425911 232.43626369 -177.92776236 232.00114663 -181.9375 231.9375 C-185.08502873 232.67069996 -185.08502873 232.67069996 -186.25 235 C-186.62125 235.99 -186.62125 235.99 -187 237 C-187.99 237.33 -188.98 237.66 -190 238 C-191.1446875 238.9590625 -191.1446875 238.9590625 -192.3125 239.9375 C-195.92730634 242.7116537 -199.41570585 243.59450933 -203.79296875 244.71484375 C-204.78941406 244.97394531 -205.78585938 245.23304688 -206.8125 245.5 C-207.76769531 245.7371875 -208.72289062 245.974375 -209.70703125 246.21875 C-212.17220879 246.75908113 -212.17220879 246.75908113 -213 249 C-226.11249742 249.84054471 -238.89730796 250.03989619 -252 249 C-252.33 248.34 -252.66 247.68 -253 247 C-255.37164551 246.1557371 -255.37164551 246.1557371 -258.1875 245.5 C-259.68216797 245.11134766 -259.68216797 245.11134766 -261.20703125 244.71484375 C-262.12871094 244.47894531 -263.05039062 244.24304688 -264 244 C-268.6185429 242.71707142 -271.3428414 241.07971251 -275 238 C-275.7425 237.649375 -276.485 237.29875 -277.25 236.9375 C-279 236 -279 236 -280 233 C-280.639375 232.855625 -281.27875 232.71125 -281.9375 232.5625 C-282.618125 232.376875 -283.29875 232.19125 -284 232 C-284.28875 231.41605469 -284.5775 230.83210937 -284.875 230.23046875 C-286.22847435 227.54701786 -287.94745465 225.88369654 -290.0625 223.75 C-305.26322865 207.10275039 -309.84544499 187.00324788 -309 165 C-307.44315438 149.56949211 -301.02377057 134.69225476 -291.26171875 122.68359375 C-289.91145846 121.00015019 -289.91145846 121.00015019 -288.98828125 118.84765625 C-287.58939063 116.232339 -285.6896981 116.07587924 -283 115 C-282.31731862 113.67479497 -281.6492959 112.34187818 -281 111 C-279.67405895 110.63837971 -278.34061543 110.30271961 -277 110 C-276.505 108.515 -276.505 108.515 -276 107 C-274.66666667 106.66666667 -273.33333333 106.33333333 -272 106 C-271.29617188 105.3709375 -270.59234375 104.741875 -269.8671875 104.09375 C-266.29516581 101.48529819 -263.14724057 100.80517727 -258.875 99.9375 C-252.79847664 98.71801123 -252.79847664 98.71801123 -248 95 C-245.7734375 94.671875 -245.7734375 94.671875 -243.375 94.75 C-242.57835937 94.76546875 -241.78171875 94.7809375 -240.9609375 94.796875 C-239 95 -239 95 -238 96 C-235.98035801 96.07244053 -233.95832876 96.08377188 -231.9375 96.0625 C-230.83277344 96.05347656 -229.72804688 96.04445313 -228.58984375 96.03515625 C-227.73519531 96.02355469 -226.88054687 96.01195312 -226 96 C-226 95.67 -226 95.34 -226 95 C-224.56344146 94.91868537 -223.1255517 94.86066441 -221.6875 94.8125 C-220.48673828 94.76029297 -220.48673828 94.76029297 -219.26171875 94.70703125 C-216.43660688 95.07297838 -215.96086081 96.01962814 -214 98 C-211.25216666 98.94058783 -211.25216666 98.94058783 -208.1875 99.5625 C-207.12015625 99.81128906 -206.0528125 100.06007813 -204.953125 100.31640625 C-203.49132812 100.65478516 -203.49132812 100.65478516 -202 101 C-197.92041576 102.14514645 -195.87797094 102.9912122 -193 106 C-192.319375 106.144375 -191.63875 106.28875 -190.9375 106.4375 C-189.9784375 106.7159375 -189.9784375 106.7159375 -189 107 C-188.33333333 108.33333333 -187.66666667 109.66666667 -187 111 C-185.67405895 111.36162029 -184.34061543 111.69728039 -183 112 C-182.67 112.99 -182.34 113.98 -182 115 C-180.87851562 114.47599609 -180.87851562 114.47599609 -179.734375 113.94140625 C-178.74953125 113.48636719 -177.7646875 113.03132813 -176.75 112.5625 C-175.77546875 112.11003906 -174.8009375 111.65757812 -173.796875 111.19140625 C-171 110 -171 110 -168.7734375 109.44921875 C-166.79060779 109.08117274 -166.79060779 109.08117274 -164.875 107.25 C-159.21643952 102.82156136 -153.15189953 99.89398744 -146 99 C-145.34 98.34 -144.68 97.68 -144 97 C-139.74687862 93.22927424 -135.11592125 90.8165218 -130.0625 88.3125 C-129.27681641 87.90966797 -128.49113281 87.50683594 -127.68164062 87.09179688 C-123.44815874 84.97682726 -119.78030691 83.45270964 -115 83 C-115 82.34 -115 81.68 -115 81 C-111.63238779 79.17352128 -108.25476284 77.36638135 -104.875 75.5625 C-103.92367187 75.04623047 -102.97234375 74.52996094 -101.9921875 73.99804688 C-101.0640625 73.50498047 -100.1359375 73.01191406 -99.1796875 72.50390625 C-98.33132324 72.04830322 -97.48295898 71.5927002 -96.60888672 71.12329102 C-94 70 -94 70 -90.80126953 69.46850586 C-87.86977147 69.25695688 -87.86977147 69.25695688 -86 67 C-84.03711666 65.46649739 -82.22969844 64.11484922 -80 63 C-79.59270772 60.67843403 -79.25561323 58.3431213 -79 56 C-78.34 56 -77.68 56 -77 56 C-76.85304688 54.89205078 -76.85304688 54.89205078 -76.703125 53.76171875 C-74.49475265 38.77905461 -69.382156 27.1072157 -58.890625 16.1640625 C-56.80469453 14.05744858 -56.80469453 14.05744858 -56 11 C-55.360625 10.855625 -54.72125 10.71125 -54.0625 10.5625 C-53.381875 10.376875 -52.70125 10.19125 -52 10 C-51.70351563 9.37351562 -51.40703125 8.74703125 -51.1015625 8.1015625 C-49.20430716 4.48197608 -45.70113834 3.38875747 -42 2 C-39.63221321 1.46247242 -37.42870042 1.2023917 -35 1 C-35 0.34 -35 -0.32 -35 -1 C-22.88052971 -1.89419017 -11.95228142 -2.51808526 0 0 Z " fill="#4F47CE" transform="translate(365,78)"/>
<path d="M0 0 C0.495 0.99 0.495 0.99 1 2 C1.66 2 2.32 2 3 2 C3 2.66 3 3.32 3 4 C5.31 4.33 7.62 4.66 10 5 C10.495 6.98 10.495 6.98 11 9 C11.78375 8.95875 12.5675 8.9175 13.375 8.875 C16 9 16 9 18 11 C20.92053174 11.39097615 20.92053174 11.39097615 24.25 11.5 C32.20626583 11.8666482 38.01489972 14.36258066 44.875 18.125 C45.56335938 18.49753906 46.25171875 18.87007813 46.9609375 19.25390625 C48.64294798 20.16499526 50.32180436 21.08190315 52 22 C52 22.66 52 23.32 52 24 C53.155 24.24492187 54.31 24.48984375 55.5 24.7421875 C60.07471379 25.88586595 63.90943302 27.8235478 68 30.125 C68.67933594 30.49753906 69.35867188 30.87007813 70.05859375 31.25390625 C71.7102222 32.16113878 73.35578035 33.07940827 75 34 C75 34.66 75 35.32 75 36 C76.134375 36.23460937 77.26875 36.46921875 78.4375 36.7109375 C83.38013955 37.94659739 87.56641195 40.16616434 92 42.625 C92.77472656 43.04523438 93.54945313 43.46546875 94.34765625 43.8984375 C96.23614356 44.92428246 98.11871 45.96101484 100 47 C100 47.66 100 48.32 100 49 C103.96 49.99 103.96 49.99 108 51 C108.33 50.01 108.66 49.02 109 48 C113.00198123 45.58019739 116.43161232 44.70282887 121 44 C122.63013303 43.51699762 124.25478595 43.01529743 125.875 42.5 C137.12451764 39.05283839 147.60987784 39.60034944 159 42 C159.82113281 42.16757812 160.64226562 42.33515625 161.48828125 42.5078125 C168.4050299 43.97253574 174.28318866 45.61267967 180 50 C180.33 50.99 180.66 51.98 181 53 C181.61875 53.12375 182.2375 53.2475 182.875 53.375 C186.02722712 54.30212562 186.39201928 56.1413676 188 59 C189.09287015 60.36329975 190.19849725 61.71641335 191.3125 63.0625 C202.00684264 76.67348154 206.47059681 93.07455777 204.5 110.21875 C202.42861936 121.74080481 197.41463745 133.03379726 189.19921875 141.46484375 C187.79265318 143.26543095 187.40900941 144.77210167 187 147 C186.38125 147.0825 185.7625 147.165 185.125 147.25 C182.82027141 147.79394438 182.82027141 147.79394438 181.9375 150 C181.628125 150.66 181.31875 151.32 181 152 C180.01 152.33 179.02 152.66 178 153 C177.566875 153.45375 177.13375 153.9075 176.6875 154.375 C172.7946868 158.12363494 168.53561378 159.31916082 163.22265625 159.69140625 C160.81722708 159.95819875 160.81722708 159.95819875 157.90234375 161.015625 C153.14466263 162.42255831 148.42278271 162.25364772 143.5 162.1875 C142.13294922 162.1865332 142.13294922 162.1865332 140.73828125 162.18554688 C134.32201932 162.14388284 128.21319903 161.71398594 122 160 C120.948125 159.7834375 120.948125 159.7834375 119.875 159.5625 C118 159 118 159 116 157 C115.4225 156.87625 114.845 156.7525 114.25 156.625 C110.97845812 155.71623837 108.687638 154.04494196 106 152 C105.31822584 150.67432801 104.64808564 149.34246312 104 148 C103.34 147.855625 102.68 147.71125 102 147.5625 C101.34 147.376875 100.68 147.19125 100 147 C99.31653318 145.34015202 98.65411685 143.67163195 98 142 C97.11498922 140.93130774 96.19379753 139.89214967 95.25 138.875 C86.4492683 128.95534886 82.80201979 116.9982518 82 104 C81.01 104.495 81.01 104.495 80 105 C80 102.69 80 100.38 80 98 C79.236875 97.79375 78.47375 97.5875 77.6875 97.375 C72.50101406 95.44105609 67.80966916 92.7214854 63 90 C63 89.34 63 88.68 63 88 C61.865625 87.76539063 60.73125 87.53078125 59.5625 87.2890625 C54.61986045 86.05340261 50.43358805 83.83383566 46 81.375 C45.22527344 80.95476562 44.45054687 80.53453125 43.65234375 80.1015625 C41.76385644 79.07571754 39.88129 78.03898516 38 77 C38 76.34 38 75.68 38 75 C36.2675 74.63261719 36.2675 74.63261719 34.5 74.2578125 C29.92528621 73.11413405 26.09056698 71.1764522 22 68.875 C21.32066406 68.50246094 20.64132813 68.12992187 19.94140625 67.74609375 C18.2897778 66.83886122 16.64421965 65.92059173 15 65 C15 64.34 15 63.68 15 63 C13.906875 62.79375 12.81375 62.5875 11.6875 62.375 C5.95274235 60.97477192 1.05846975 57.95697313 -4 55 C-4 54.34 -4 53.68 -4 53 C-5.2065625 52.9071875 -5.2065625 52.9071875 -6.4375 52.8125 C-9.79965996 52.04569159 -11.56448276 51.15095757 -14.4375 49.375 C-17.76425911 47.43626369 -18.92776236 47.00114663 -22.9375 46.9375 C-26.08502873 47.67069996 -26.08502873 47.67069996 -27.25 50 C-27.4975 50.66 -27.745 51.32 -28 52 C-28.99 52.33 -29.98 52.66 -31 53 C-31.763125 53.639375 -32.52625 54.27875 -33.3125 54.9375 C-36.92730634 57.7116537 -40.41570585 58.59450933 -44.79296875 59.71484375 C-46.28763672 60.10349609 -46.28763672 60.10349609 -47.8125 60.5 C-48.76769531 60.7371875 -49.72289062 60.974375 -50.70703125 61.21875 C-53.17220879 61.75908113 -53.17220879 61.75908113 -54 64 C-57.96 63.67 -61.92 63.34 -66 63 C-63.67217558 60.67217558 -62.7957716 60.62780844 -59.625 60.125 C-48.600256 58.04994043 -39.41785792 54.065739 -30 48 C-29.21109375 47.5153125 -28.4221875 47.030625 -27.609375 46.53125 C-22.80644098 43.32929399 -20.78751404 40.34768307 -18.984375 34.85546875 C-18 33 -18 33 -15.890625 32.23828125 C-15.26671875 32.15964844 -14.6428125 32.08101563 -14 32 C-13.81244141 30.9171875 -13.81244141 30.9171875 -13.62109375 29.8125 C-13.00856179 27.03877037 -12.1477227 24.62091521 -11.0625 22 C-10.72347656 21.175 -10.38445312 20.35 -10.03515625 19.5 C-9.69355469 18.675 -9.35195312 17.85 -9 17 C-8.33133924 15.33413236 -7.66409862 13.66769159 -7 12 C-6.34 12 -5.68 12 -5 12 C-4.67 10.02 -4.34 8.04 -4 6 C-3.34 6 -2.68 6 -2 6 C-1.34 4.02 -0.68 2.04 0 0 Z " fill="#3547CC" transform="translate(206,263)"/>
<path d="M0 0 C1.23169922 0.25136719 1.23169922 0.25136719 2.48828125 0.5078125 C9.4050299 1.97253574 15.28318866 3.61267967 21 8 C21.495 9.485 21.495 9.485 22 11 C22.61875 11.12375 23.2375 11.2475 23.875 11.375 C27.02722712 12.30212562 27.39201928 14.1413676 29 17 C30.09287015 18.36329975 31.19849725 19.71641335 32.3125 21.0625 C42.11391925 33.53703358 46.93780788 48.50077939 45.75 64.33203125 C44.0154245 77.38780937 39.43972031 89.78585896 30.234375 99.39453125 C28.82049414 101.23347123 28.4123896 102.73676663 28 105 C27.38125 105.0825 26.7625 105.165 26.125 105.25 C23.82027141 105.79394438 23.82027141 105.79394438 22.9375 108 C22.4734375 108.99 22.4734375 108.99 22 110 C20.515 110.495 20.515 110.495 19 111 C18.566875 111.45375 18.13375 111.9075 17.6875 112.375 C13.7946868 116.12363494 9.53561378 117.31916082 4.22265625 117.69140625 C1.81446644 117.96025096 1.81446644 117.96025096 -1.12109375 119.0078125 C-5.75565149 120.37367697 -10.3238598 120.3411428 -15.125 120.3125 C-16.04917725 120.30976074 -16.97335449 120.30702148 -17.92553711 120.30419922 C-26.7593438 120.17003824 -35.05554089 119.1109974 -43 115 C-43.680625 114.855625 -44.36125 114.71125 -45.0625 114.5625 C-47.49042148 113.85761957 -48.45453636 112.98702469 -50 111 C-50.13664062 110.37996094 -50.27328125 109.75992188 -50.4140625 109.12109375 C-51.09214695 106.66642805 -52.08916936 105.34669397 -53.6875 103.375 C-59.04229943 96.44301499 -63.17993195 88.79309501 -67.375 81.125 C-67.73319824 80.48232178 -68.09139648 79.83964355 -68.46044922 79.17749023 C-70.29949264 75.76372661 -71 73.96973407 -71 70 C-72.32 69.34 -73.64 68.68 -75 68 C-74.67 66.68 -74.34 65.36 -74 64 C-74.99 63.67 -75.98 63.34 -77 63 C-76.53132785 44.53431712 -72.01391589 29.67097519 -58.85546875 16.09375 C-56.79789006 14.04789237 -56.79789006 14.04789237 -56 11 C-55.0409375 10.7834375 -55.0409375 10.7834375 -54.0625 10.5625 C-53.381875 10.376875 -52.70125 10.19125 -52 10 C-51.70351563 9.37351562 -51.40703125 8.74703125 -51.1015625 8.1015625 C-49.20430716 4.48197608 -45.70113834 3.38875747 -42 2 C-39.63221321 1.46247242 -37.42870042 1.2023917 -35 1 C-35 0.34 -35 -0.32 -35 -1 C-22.88052971 -1.89419017 -11.95228142 -2.51808526 0 0 Z " fill="#5F47D3" transform="translate(365,78)"/>
<path d="M0 0 C0.33 0 0.66 0 1 0 C1.495 3.465 1.495 3.465 2 7 C2.99 7.33 3.98 7.66 5 8 C5.12375 8.804375 5.2475 9.60875 5.375 10.4375 C5.684375 11.7059375 5.684375 11.7059375 6 13 C6.99 13.495 6.99 13.495 8 14 C8.75390625 15.72265625 8.75390625 15.72265625 9.5625 18.0625 C13.84755631 29.18134501 20.15947527 39.4672555 27.56640625 48.765625 C29 51 29 51 29 55 C28.48179687 55.0928125 27.96359375 55.185625 27.4296875 55.28125 C23.47615904 56.45078253 19.93096504 58.53293485 16.30859375 60.47265625 C12.50580628 62.44416646 9.20789753 63.36206801 5 64 C4.34 64.66 3.68 65.32 3 66 C-1.15464295 69.29898565 -5.70016886 71.65218536 -10.375 74.125 C-11.21289062 74.58003906 -12.05078125 75.03507812 -12.9140625 75.50390625 C-17.27923685 77.81689958 -20.98830104 79.59188119 -26 80 C-26 80.66 -26 81.32 -26 82 C-29.70103694 83.99303842 -33.41196907 85.96690949 -37.125 87.9375 C-38.17171875 88.50146484 -39.2184375 89.06542969 -40.296875 89.64648438 C-41.31523437 90.18466797 -42.33359375 90.72285156 -43.3828125 91.27734375 C-44.78104248 92.02359009 -44.78104248 92.02359009 -46.20751953 92.78491211 C-49.16905466 94.0735605 -51.82001672 94.51241682 -55 95 C-57.14549353 95.80440725 -57.14549353 95.80440725 -59.0859375 96.84765625 C-59.78847656 97.20537109 -60.49101562 97.56308594 -61.21484375 97.93164062 C-61.92769531 98.30482422 -62.64054687 98.67800781 -63.375 99.0625 C-64.11105469 99.43955078 -64.84710938 99.81660156 -65.60546875 100.20507812 C-67.40739646 101.12944364 -69.20423099 102.06372614 -71 103 C-71 103.66 -71 104.32 -71 105 C-72.98 105.99 -74.96 106.98 -77 108 C-77 107.34 -77 106.68 -77 106 C-77.66 106 -78.32 106 -79 106 C-79.268125 105.195625 -79.53625 104.39125 -79.8125 103.5625 C-80.204375 102.716875 -80.59625 101.87125 -81 101 C-82.485 100.505 -82.485 100.505 -84 100 C-85.04980354 97.71408975 -85.89798062 95.56082866 -86.6875 93.1875 C-87.34298828 91.32158203 -87.34298828 91.32158203 -88.01171875 89.41796875 C-89 86 -89 86 -89 82 C-89.66 82 -90.32 82 -91 82 C-91.98414433 80.08588443 -92.96213349 78.1686033 -93.9375 76.25 C-94.48277344 75.18265625 -95.02804688 74.1153125 -95.58984375 73.015625 C-97.75853961 68.37785988 -97.75853961 68.37785988 -98 66 C-94.7997309 62.02390809 -91.50456608 60.21536037 -87 58 C-85.68665586 57.2754721 -84.37835107 56.54176195 -83.07421875 55.80078125 C-74.9573351 51.19289883 -66.81328828 46.86635695 -58.33129883 42.9699707 C-49.1006364 38.7067876 -40.19356393 33.8264596 -31.265625 28.96875 C-21.35303686 23.59727939 -11.22506207 18.74705427 -1 14 C-1 13.01 -1 12.02 -1 11 C-2.32 10.67 -3.64 10.34 -5 10 C-4.360625 9.649375 -3.72125 9.29875 -3.0625 8.9375 C-0.17836168 6.22815794 -0.2899178 3.84141089 0 0 Z " fill="#4440D1" transform="translate(286,134)"/>
<path d="M0 0 C1.98 0.33 3.96 0.66 6 1 C6.33 1.99 6.66 2.98 7 4 C-2.22574108 8.98813535 -11.47703222 13.82543986 -21.02514648 18.171875 C-25.33091996 20.14777204 -29.4627856 22.33062857 -33.58935547 24.65673828 C-38.03232543 27.13245438 -42.5512876 29.46418207 -47.0625 31.8125 C-48.56889038 32.59862671 -48.56889038 32.59862671 -50.10571289 33.40063477 C-56.01883412 36.47779907 -61.95840278 39.49092231 -67.9375 42.4375 C-72.58229876 44.72773639 -77.07596383 47.11502237 -81.390625 49.98828125 C-83 51 -83 51 -86.375 52.5 C-89.20733492 53.80103765 -89.20733492 53.80103765 -90.375 56.6875 C-90.58125 57.450625 -90.7875 58.21375 -91 59 C-91.495 57.02 -91.495 57.02 -92 55 C-92.66 55 -93.32 55 -94 55 C-95.16667829 53.83332171 -96.33102888 52.66423482 -97.484375 51.484375 C-113.4683586 35.82995807 -135.5933279 32.86312869 -157 33 C-156 31 -156 31 -154.328125 30.37890625 C-151.43791344 29.90851947 -148.67727465 29.9056818 -145.75 29.9375 C-144.67234375 29.94652344 -143.5946875 29.95554688 -142.484375 29.96484375 C-141.66453125 29.97644531 -140.8446875 29.98804688 -140 30 C-140 29.67 -140 29.34 -140 29 C-138.56344146 28.91868537 -137.1255517 28.86066441 -135.6875 28.8125 C-134.48673828 28.76029297 -134.48673828 28.76029297 -133.26171875 28.70703125 C-130.43660688 29.07297838 -129.96086081 30.01962814 -128 32 C-125.25216666 32.94058783 -125.25216666 32.94058783 -122.1875 33.5625 C-121.12015625 33.81128906 -120.0528125 34.06007812 -118.953125 34.31640625 C-117.49132812 34.65478516 -117.49132812 34.65478516 -116 35 C-111.92041576 36.14514645 -109.87797094 36.9912122 -107 40 C-106.319375 40.144375 -105.63875 40.28875 -104.9375 40.4375 C-103.9784375 40.7159375 -103.9784375 40.7159375 -103 41 C-102.33333333 42.33333333 -101.66666667 43.66666667 -101 45 C-99.67405895 45.36162029 -98.34061543 45.69728039 -97 46 C-96.67 46.99 -96.34 47.98 -96 49 C-95.25234375 48.65066406 -94.5046875 48.30132812 -93.734375 47.94140625 C-92.74953125 47.48636719 -91.7646875 47.03132813 -90.75 46.5625 C-89.77546875 46.11003906 -88.8009375 45.65757812 -87.796875 45.19140625 C-85 44 -85 44 -82.7734375 43.44921875 C-80.79060779 43.08117274 -80.79060779 43.08117274 -78.875 41.25 C-73.21643952 36.82156136 -67.15189953 33.89398744 -60 33 C-59.01 32.01 -59.01 32.01 -58 31 C-53.74687862 27.22927424 -49.11592125 24.8165218 -44.0625 22.3125 C-43.27681641 21.90966797 -42.49113281 21.50683594 -41.68164062 21.09179688 C-37.44815874 18.97682726 -33.78030691 17.45270964 -29 17 C-29 16.34 -29 15.68 -29 15 C-25.63238779 13.17352128 -22.25476284 11.36638135 -18.875 9.5625 C-17.44800781 8.7880957 -17.44800781 8.7880957 -15.9921875 7.99804688 C-14.6 7.25844727 -14.6 7.25844727 -13.1796875 6.50390625 C-11.90714111 5.82050171 -11.90714111 5.82050171 -10.60888672 5.12329102 C-8 4 -8 4 -4.80126953 3.46850586 C-1.86977147 3.25695688 -1.86977147 3.25695688 0 1 C0 0.67 0 0.34 0 0 Z " fill="#6566ED" transform="translate(279,144)"/>
<path d="M0 0 C4.62675657 1.3922459 8.64686231 3.29520984 12.875 5.625 C14.02742188 6.25664062 15.17984375 6.88828125 16.3671875 7.5390625 C17.67042969 8.26222656 17.67042969 8.26222656 19 9 C19 9.66 19 10.32 19 11 C21.64 11.66 24.28 12.32 27 13 C27.33 12.01 27.66 11.02 28 10 C32.00198123 7.58019739 35.43161232 6.70282887 40 6 C41.63013303 5.51699762 43.25478595 5.01529743 44.875 4.5 C56.12451764 1.05283839 66.60987784 1.60034944 78 4 C78.82113281 4.16757812 79.64226562 4.33515625 80.48828125 4.5078125 C87.4050299 5.97253574 93.28318866 7.61267967 99 12 C99.495 13.485 99.495 13.485 100 15 C100.61875 15.12375 101.2375 15.2475 101.875 15.375 C105.02722712 16.30212562 105.39201928 18.1413676 107 21 C108.09287015 22.36329975 109.19849725 23.71641335 110.3125 25.0625 C121.01708169 38.68651306 125.42871949 55.03798405 123.51171875 72.19140625 C122.27802849 78.96257646 120.43682442 85.63778078 116 91 C116.57747849 87.15388113 117.41631015 83.58488986 118.5625 79.875 C122.75655707 63.20258501 120.35982924 46.45940417 111.7578125 31.6328125 C106.48303563 23.73236891 100.23296318 17.70243122 92 13 C91.06607422 12.43345703 91.06607422 12.43345703 90.11328125 11.85546875 C77.44448687 4.76413102 61.87628088 3.87741935 48 7 C40.25693376 9.26796908 33.69709897 12.53526735 27 17 C24.73828125 16.7578125 24.73828125 16.7578125 22.3125 16.125 C21.50425781 15.92132813 20.69601562 15.71765625 19.86328125 15.5078125 C18.94095703 15.25644531 18.94095703 15.25644531 18 15 C18 14.34 18 13.68 18 13 C17.071875 12.896875 16.14375 12.79375 15.1875 12.6875 C11.80894117 11.95879123 11.21848867 11.42016946 9 9 C6.89667109 8.28552357 6.89667109 8.28552357 5 8 C5 7.34 5 6.68 5 6 C4.05125 6.04125 3.1025 6.0825 2.125 6.125 C-1 6 -1 6 -3 4 C-1.68 3.67 -0.36 3.34 1 3 C0.67 2.01 0.34 1.02 0 0 Z " fill="#7E8FFD" transform="translate(287,301)"/>
<path d="M0 0 C0.66 0 1.32 0 2 0 C2.40089844 0.89460938 2.80179687 1.78921875 3.21484375 2.7109375 C8.69000839 14.51973065 15.5072947 23.43569806 27 30 C27.62261719 30.37769531 28.24523437 30.75539063 28.88671875 31.14453125 C40.31813957 37.54325108 56.57668745 40.0661586 69.19287109 36.57983398 C78.69121582 33.6139967 87.33928791 29.42511336 95 23 C95.66 23 96.32 23 97 23 C97 22.34 97 21.68 97 21 C97.66 21 98.32 21 99 21 C99.66 19.68 100.32 18.36 101 17 C102 20 102 20 101.3125 22.625 C100.879375 23.40875 100.44625 24.1925 100 25 C98.67696283 25.3721042 97.34262065 25.70630173 96 26 C95.30062468 27.31647119 94.63270867 28.65022151 94 30 C92.515 30.495 92.515 30.495 91 31 C90.566875 31.45375 90.13375 31.9075 89.6875 32.375 C85.7946868 36.12363494 81.53561378 37.31916082 76.22265625 37.69140625 C73.81722708 37.95819875 73.81722708 37.95819875 70.90234375 39.015625 C66.14466263 40.42255831 61.42278271 40.25364772 56.5 40.1875 C55.13294922 40.1865332 55.13294922 40.1865332 53.73828125 40.18554688 C47.32201932 40.14388284 41.21319903 39.71398594 35 38 C34.29875 37.855625 33.5975 37.71125 32.875 37.5625 C31 37 31 37 29 35 C28.13375 34.814375 28.13375 34.814375 27.25 34.625 C23.97845812 33.71623837 21.687638 32.04494196 19 30 C18.31822584 28.67432801 17.64808564 27.34246312 17 26 C16.34 25.855625 15.68 25.71125 15 25.5625 C14.34 25.376875 13.68 25.19125 13 25 C12.31653318 23.34015202 11.65411685 21.67163195 11 20 C10.11264326 18.95358875 9.19168786 17.9352988 8.25 16.9375 C4.03831264 12.26937362 1.62109477 6.66044934 -1 1 C-0.67 0.67 -0.34 0.34 0 0 Z " fill="#111B92" transform="translate(293,385)"/>
<path d="M0 0 C0.82113281 0.16757813 1.64226562 0.33515625 2.48828125 0.5078125 C9.4050299 1.97253574 15.28318866 3.61267967 21 8 C21.495 9.485 21.495 9.485 22 11 C22.61875 11.12375 23.2375 11.2475 23.875 11.375 C27.02722712 12.30212562 27.39201928 14.1413676 29 17 C30.09287015 18.36329975 31.19849725 19.71641335 32.3125 21.0625 C40.81255541 31.88075235 45.79154374 44.22127561 45 58 C44.34 58 43.68 58 43 58 C42.91363281 57.21238281 42.82726562 56.42476562 42.73828125 55.61328125 C40.61731334 39.17091533 34.06271503 23.72252531 20.765625 13.23828125 C18.55610393 11.72590217 16.31775251 10.33969383 14 9 C13.37609375 8.62101562 12.7521875 8.24203125 12.109375 7.8515625 C-5.00994745 -1.71511769 -23.07409315 1.23247158 -41 6 C-40.67 5.01 -40.34 4.02 -40 3 C-37.4375 1.8125 -37.4375 1.8125 -35 1 C-35 0.34 -35 -0.32 -35 -1 C-22.88052971 -1.89419017 -11.95228142 -2.51808526 0 0 Z " fill="#A992FD" transform="translate(365,78)"/>
<path d="M0 0 C4.62675657 1.3922459 8.64686231 3.29520984 12.875 5.625 C14.02742188 6.25664062 15.17984375 6.88828125 16.3671875 7.5390625 C17.67042969 8.26222656 17.67042969 8.26222656 19 9 C19 9.66 19 10.32 19 11 C21.64 11.66 24.28 12.32 27 13 C27.33 12.01 27.66 11.02 28 10 C32.00198123 7.58019739 35.43161232 6.70282887 40 6 C41.58695285 5.4903016 43.16997638 4.96828919 44.75 4.4375 C49.90928378 2.8222835 54.63460619 2.69177525 60 3 C60.495 3.99 60.495 3.99 61 5 C59.78376953 5.14695312 59.78376953 5.14695312 58.54296875 5.296875 C46.62451545 6.90635181 36.98590993 10.34272671 27 17 C24.73828125 16.7578125 24.73828125 16.7578125 22.3125 16.125 C21.50425781 15.92132813 20.69601562 15.71765625 19.86328125 15.5078125 C18.94095703 15.25644531 18.94095703 15.25644531 18 15 C18 14.34 18 13.68 18 13 C17.071875 12.896875 16.14375 12.79375 15.1875 12.6875 C11.80894117 11.95879123 11.21848867 11.42016946 9 9 C6.89667109 8.28552357 6.89667109 8.28552357 5 8 C5 7.34 5 6.68 5 6 C4.05125 6.04125 3.1025 6.0825 2.125 6.125 C-1 6 -1 6 -3 4 C-1.68 3.67 -0.36 3.34 1 3 C0.67 2.01 0.34 1.02 0 0 Z " fill="#6A77FB" transform="translate(287,301)"/>
<path d="M0 0 C0.99 0.495 0.99 0.495 2 1 C1.67 2.32 1.34 3.64 1 5 C0.38125 5.0825 -0.2375 5.165 -0.875 5.25 C-3.17972859 5.79394438 -3.17972859 5.79394438 -4.0625 8 C-4.5265625 8.99 -4.5265625 8.99 -5 10 C-5.99 10.33 -6.98 10.66 -8 11 C-8.433125 11.45375 -8.86625 11.9075 -9.3125 12.375 C-13.2053132 16.12363494 -17.46438622 17.31916082 -22.77734375 17.69140625 C-25.18553356 17.96025096 -25.18553356 17.96025096 -28.12109375 19.0078125 C-32.75565149 20.37367697 -37.3238598 20.3411428 -42.125 20.3125 C-43.04917725 20.30976074 -43.97335449 20.30702148 -44.92553711 20.30419922 C-53.7593438 20.17003824 -62.05554089 19.1109974 -70 15 C-71.0209375 14.7834375 -71.0209375 14.7834375 -72.0625 14.5625 C-74.40586999 13.88216678 -75.41902573 12.81812041 -77 11 C-72.61007502 9.68062364 -70.40084311 10.37476729 -66.3125 12.3125 C-60.91966944 14.71822367 -55.8277805 16.13614758 -50 17 C-50 17.66 -50 18.32 -50 19 C-49.34 18.67 -48.68 18.34 -48 18 C-46.10415915 17.97986209 -44.20765882 18.00780909 -42.3125 18.0625 C-37.4353719 18.09142721 -33.62956336 17.65341548 -29 16 C-28.10796875 15.74347656 -27.2159375 15.48695313 -26.296875 15.22265625 C-16.16138216 12.19500262 -7.86456961 7.01434586 0 0 Z " fill="#1518BA" transform="translate(392,178)"/>
<path d="M0 0 C0.66 0 1.32 0 2 0 C2.4846875 1.12277344 2.969375 2.24554688 3.46875 3.40234375 C7.3186134 12.08513816 11.02847916 19.36117647 18 26 C19.2375 27.3303125 19.2375 27.3303125 20.5 28.6875 C32.8267892 40.08978001 47.00344107 45.06433868 63 49 C63 49.66 63 50.32 63 51 C59.37 51 55.74 51 52 51 C51.67 50.34 51.34 49.68 51 49 C48.62835449 48.1557371 48.62835449 48.1557371 45.8125 47.5 C44.81605469 47.24089844 43.81960937 46.98179687 42.79296875 46.71484375 C41.87128906 46.47894531 40.94960937 46.24304688 40 46 C35.3814571 44.71707142 32.6571586 43.07971251 29 40 C27.88625 39.4740625 27.88625 39.4740625 26.75 38.9375 C25 38 25 38 24 35 C23.360625 34.855625 22.72125 34.71125 22.0625 34.5625 C21.0415625 34.2840625 21.0415625 34.2840625 20 34 C19.71125 33.41605469 19.4225 32.83210938 19.125 32.23046875 C17.77152565 29.54701786 16.05254535 27.88369654 13.9375 25.75 C9.90701676 21.36619517 6.86183829 16.80737166 3.9375 11.625 C3.34666626 10.59004395 3.34666626 10.59004395 2.74389648 9.53417969 C0.82480179 6.02649868 0 4.0763208 0 0 Z " fill="#172098" transform="translate(61,276)"/>
<path d="M0 0 C0.66 0.33 1.32 0.66 2 1 C2 4.3 2 7.6 2 11 C0.68 10.67 -0.64 10.34 -2 10 C-4.58777208 13.05580974 -4.58777208 13.05580974 -5 17 C-5.94875 17.28875 -6.8975 17.5775 -7.875 17.875 C-11.20416879 19.07350076 -12.42744451 19.85488901 -14 23 C-14.99 23.33 -15.98 23.66 -17 24 C-17.763125 24.639375 -18.52625 25.27875 -19.3125 25.9375 C-22.92730634 28.7116537 -26.41570585 29.59450933 -30.79296875 30.71484375 C-32.28763672 31.10349609 -32.28763672 31.10349609 -33.8125 31.5 C-34.76769531 31.7371875 -35.72289062 31.974375 -36.70703125 32.21875 C-39.17220879 32.75908113 -39.17220879 32.75908113 -40 35 C-43.96 34.67 -47.92 34.34 -52 34 C-49.67217558 31.67217558 -48.7957716 31.62780844 -45.625 31.125 C-34.600256 29.04994043 -25.41785792 25.065739 -16 19 C-15.21109375 18.5153125 -14.4221875 18.030625 -13.609375 17.53125 C-8.80644098 14.32929399 -6.78751404 11.34768307 -4.984375 5.85546875 C-4 4 -4 4 -1.890625 3.23828125 C-1.26671875 3.15964844 -0.6428125 3.08101563 0 3 C0 2.01 0 1.02 0 0 Z " fill="#152196" transform="translate(192,292)"/>
<path d="M0 0 C1.43655854 -0.08131463 2.8744483 -0.13933559 4.3125 -0.1875 C5.51326172 -0.23970703 5.51326172 -0.23970703 6.73828125 -0.29296875 C9.56339312 0.07297838 10.03913919 1.01962814 12 3 C14.74783334 3.94058783 14.74783334 3.94058783 17.8125 4.5625 C19.41351563 4.93568359 19.41351563 4.93568359 21.046875 5.31640625 C22.50867188 5.65478516 22.50867188 5.65478516 24 6 C28.07958424 7.14514645 30.12202906 7.9912122 33 11 C34.0209375 11.2165625 34.0209375 11.2165625 35.0625 11.4375 C35.701875 11.623125 36.34125 11.80875 37 12 C37.66666667 13.33333333 38.33333333 14.66666667 39 16 C39.99 16.2475 39.99 16.2475 41 16.5 C43 17 43 17 44.0625 18.75 C44.371875 19.4925 44.68125 20.235 45 21 C45.98879205 22.67334039 46.98648336 24.34151823 48 26 C47.34 26 46.68 26 46 26 C44.83332171 24.83332171 43.66897112 23.66423482 42.515625 22.484375 C26.5316414 6.82995807 4.4066721 3.86312869 -17 4 C-16 2 -16 2 -14.328125 1.37890625 C-11.43791344 0.90851947 -8.67727465 0.9056818 -5.75 0.9375 C-4.67234375 0.94652344 -3.5946875 0.95554688 -2.484375 0.96484375 C-1.66453125 0.97644531 -0.8446875 0.98804688 0 1 C0 0.67 0 0.34 0 0 Z " fill="#9495FE" transform="translate(139,173)"/>
<path d="M0 0 C2.97 0.495 2.97 0.495 6 1 C6.495 2.485 6.495 2.485 7 4 C-1.39997371 8.53413513 -9.81630724 13.02276599 -18.4375 17.125 C-19.06922119 17.43187744 -19.70094238 17.73875488 -20.35180664 18.05493164 C-21.87308631 18.76676542 -23.43418259 19.39236936 -25 20 C-25.66 19.67 -26.32 19.34 -27 19 C-26.34 18.34 -25.68 17.68 -25 17 C-25.66 16.01 -26.32 15.02 -27 14 C-23.96583281 12.34005808 -20.92150942 10.69966379 -17.875 9.0625 C-17.0190625 8.59392578 -16.163125 8.12535156 -15.28125 7.64257812 C-10.78368548 5.23811094 -7.11899527 3.62990752 -2 3 C-1.34 2.34 -0.68 1.68 0 1 C0 0.67 0 0.34 0 0 Z " fill="#6561E1" transform="translate(279,144)"/>
<path d="M0 0 C0.99 0.495 0.99 0.495 2 1 C2.90238747 3.70716242 3.11851302 5.23776768 3.09765625 8.01171875 C3.09282227 9.14770508 3.09282227 9.14770508 3.08789062 10.30664062 C3.07951172 11.09232422 3.07113281 11.87800781 3.0625 12.6875 C3.05798828 13.48478516 3.05347656 14.28207031 3.04882812 15.10351562 C3.0370585 17.06904257 3.01912348 19.03453085 3 21 C4.0621875 21.53109375 5.124375 22.0621875 6.21875 22.609375 C16.609375 27.8046875 16.609375 27.8046875 27 33 C26.67 34.32 26.34 35.64 26 37 C18.25 36.25 18.25 36.25 16 34 C13.42938689 33.35232207 13.42938689 33.35232207 11 33 C10.505 31.515 10.505 31.515 10 30 C6.48809191 28.77030122 6.48809191 28.77030122 3 28 C3 27.34 3 26.68 3 26 C2.34 26 1.68 26 1 26 C-0.30475618 23.39048764 -0.11301572 21.47298715 -0.09765625 18.5546875 C-0.09443359 17.47832031 -0.09121094 16.40195313 -0.08789062 15.29296875 C-0.07951172 14.16503906 -0.07113281 13.03710938 -0.0625 11.875 C-0.05798828 10.73933594 -0.05347656 9.60367188 -0.04882812 8.43359375 C-0.03701615 5.62234362 -0.02054507 2.8111977 0 0 Z " fill="#4755E8" transform="translate(206,239)"/>
<path d="M0 0 C0.66 0.33 1.32 0.66 2 1 C1.875 2.75 1.875 2.75 1 5 C-0.40160098 5.93792936 -1.80622699 6.87166651 -3.22607422 7.78173828 C-14.81428641 15.74006182 -24.28469932 26.25338748 -28 40 C-28.66 40 -29.32 40 -30 40 C-28.71042381 29.23203884 -22.23158357 20.58544629 -14.8203125 13.0234375 C-12.79095621 11.03851833 -12.79095621 11.03851833 -12 8 C-11.0409375 7.7834375 -11.0409375 7.7834375 -10.0625 7.5625 C-9.381875 7.376875 -8.70125 7.19125 -8 7 C-7.566875 6.071875 -7.566875 6.071875 -7.125 5.125 C-5.46818239 1.99545562 -3.21220037 1.27149598 0 0 Z " fill="#675CDA" transform="translate(321,81)"/>
<path d="M0 0 C0.80050781 0.03480469 1.60101563 0.06960937 2.42578125 0.10546875 C3.63814453 0.14607422 3.63814453 0.14607422 4.875 0.1875 C5.48988281 0.22230469 6.10476562 0.25710937 6.73828125 0.29296875 C6.73828125 0.62296875 6.73828125 0.95296875 6.73828125 1.29296875 C5.95453125 1.43734375 5.17078125 1.58171875 4.36328125 1.73046875 C1.77407107 2.170958 1.77407107 2.170958 -0.26171875 3.29296875 C-0.26171875 3.95296875 -0.26171875 4.61296875 -0.26171875 5.29296875 C-1.33550781 5.6075 -2.40929687 5.92203125 -3.515625 6.24609375 C-4.95195909 6.67793276 -6.38814943 7.11025007 -7.82421875 7.54296875 C-8.88092773 7.85041016 -8.88092773 7.85041016 -9.95898438 8.1640625 C-14.85692144 9.65375764 -18.89111209 11.62471072 -23.26171875 14.29296875 C-24.47005208 14.95963542 -25.67838542 15.62630208 -26.88671875 16.29296875 C-30.27646956 18.17744481 -30.27646956 18.17744481 -33.01171875 20.60546875 C-33.75421875 21.16234375 -34.49671875 21.71921875 -35.26171875 22.29296875 C-36.25171875 21.96296875 -37.24171875 21.63296875 -38.26171875 21.29296875 C-37.01171875 18.85546875 -37.01171875 18.85546875 -35.26171875 16.29296875 C-33.13671875 15.66796875 -33.13671875 15.66796875 -31.26171875 15.29296875 C-30.93171875 14.30296875 -30.60171875 13.31296875 -30.26171875 12.29296875 C-28.92838542 11.95963542 -27.59505208 11.62630208 -26.26171875 11.29296875 C-25.55789062 10.66390625 -24.8540625 10.03484375 -24.12890625 9.38671875 C-20.55688456 6.77826694 -17.40895932 6.09814602 -13.13671875 5.23046875 C-8.23247013 4.21869133 -4.27545879 0.55381591 0 0 Z " fill="#7773F2" transform="translate(119.26171875,172.70703125)"/>
<path d="M0 0 C5.00113594 1.48008696 9.32915597 3.6318336 13.875 6.125 C14.56335938 6.49753906 15.25171875 6.87007813 15.9609375 7.25390625 C17.64294798 8.16499526 19.32180436 9.08190315 21 10 C21 10.66 21 11.32 21 12 C22.9600281 13.63676257 22.9600281 13.63676257 25 15 C22.75 15.6875 22.75 15.6875 20 16 C18.65009646 15.02248365 17.31963709 14.01800576 16 13 C13.98510507 12.38259948 11.96302023 11.92928994 9.90625 11.47265625 C7.74924365 10.93782476 5.91779818 10.1187156 4 9 C4 8.34 4 7.68 4 7 C2.68 6.34 1.36 5.68 0 5 C0 3.33333333 0 1.66666667 0 0 Z " fill="#4D61E7" transform="translate(237,275)"/>
<path d="M0 0 C-0.33 0.99 -0.66 1.98 -1 3 C-2.01578125 2.83242187 -3.0315625 2.66484375 -4.078125 2.4921875 C-12.85446341 1.15046568 -20.27752374 0.85455221 -29 3 C-30.1240625 3.26683594 -31.248125 3.53367187 -32.40625 3.80859375 C-35.27944192 4.51010907 -38.1418561 5.23985534 -41 6 C-40.67 5.01 -40.34 4.02 -40 3 C-37.4375 1.8125 -37.4375 1.8125 -35 1 C-35 0.34 -35 -0.32 -35 -1 C-22.87464242 -1.89462454 -11.96624986 -2.50508408 0 0 Z " fill="#A38FFC" transform="translate(365,78)"/>
<path d="M0 0 C0.66 0 1.32 0 2 0 C2.40089844 0.89460938 2.80179687 1.78921875 3.21484375 2.7109375 C8.72094791 14.58646078 15.54121604 23.28431037 27 30 C28.010625 30.61875 29.02125 31.2375 30.0625 31.875 C30.701875 32.24625 31.34125 32.6175 32 33 C31.67 33.99 31.34 34.98 31 36 C30.34 35.67 29.68 35.34 29 35 C28.4225 34.896875 27.845 34.79375 27.25 34.6875 C24.01324479 33.69849146 21.68235905 32.04092536 19 30 C18.31822584 28.67432801 17.64808564 27.34246312 17 26 C16.34 25.855625 15.68 25.71125 15 25.5625 C14.34 25.376875 13.68 25.19125 13 25 C12.31653318 23.34015202 11.65411685 21.67163195 11 20 C10.11264326 18.95358875 9.19168786 17.9352988 8.25 16.9375 C4.03831264 12.26937362 1.62109477 6.66044934 -1 1 C-0.67 0.67 -0.34 0.34 0 0 Z " fill="#1123A9" transform="translate(293,385)"/>
<path d="M0 0 C1.32 0.66 2.64 1.32 4 2 C3.43152344 2.64324219 2.86304687 3.28648437 2.27734375 3.94921875 C-8.07290662 16.06194915 -15.50175404 29.89385595 -17 46 C-17.33 46 -17.66 46 -18 46 C-20.49288114 33.81604342 -13.24786802 21.14763619 -7 11 C-5.45041507 8.79868807 -3.86638619 6.67060128 -2.1640625 4.5859375 C-0.79182795 2.8861766 -0.79182795 2.8861766 0 0 Z " fill="#4B54D1" transform="translate(76,196)"/>
<path d="M0 0 C0.66 0.33 1.32 0.66 2 1 C1.67 2.32 1.34 3.64 1 5 C0.071875 5.12375 0.071875 5.12375 -0.875 5.25 C-3.17972859 5.79394438 -3.17972859 5.79394438 -4.0625 8 C-4.371875 8.66 -4.68125 9.32 -5 10 C-5.99 10.33 -6.98 10.66 -8 11 C-8.433125 11.45375 -8.86625 11.9075 -9.3125 12.375 C-13.88162472 16.77489787 -19.00193693 17.44065682 -25 18 C-27.00189873 18.32173372 -29.00276453 18.65048379 -31 19 C-30.34 18.67 -29.68 18.34 -29 18 C-29 17.34 -29 16.68 -29 16 C-28.26136719 15.79246094 -27.52273438 15.58492187 -26.76171875 15.37109375 C-16.43631696 12.23542535 -8.03130913 7.16305949 0 0 Z " fill="#1920BB" transform="translate(392,178)"/>
<path d="M0 0 C4.62675657 1.3922459 8.64686231 3.29520984 12.875 5.625 C14.02742188 6.25664062 15.17984375 6.88828125 16.3671875 7.5390625 C17.67042969 8.26222656 17.67042969 8.26222656 19 9 C18.67 10.32 18.34 11.64 18 13 C13.80964675 12.53440519 11.83118296 12.08856323 9 9 C6.89667109 8.28552357 6.89667109 8.28552357 5 8 C5 7.34 5 6.68 5 6 C4.05125 6.04125 3.1025 6.0825 2.125 6.125 C-1 6 -1 6 -3 4 C-1.68 3.67 -0.36 3.34 1 3 C0.67 2.01 0.34 1.02 0 0 Z " fill="#5A72FA" transform="translate(287,301)"/>
<path d="M0 0 C0.99 0 1.98 0 3 0 C4.42100798 12.52673191 4.9276339 26.47725365 -2.6328125 37.34765625 C-3.08398438 37.89292969 -3.53515625 38.43820312 -4 39 C-3.42578095 35.1700147 -2.58965737 31.62774317 -1.4375 27.9375 C0.93959405 18.83299899 0.2557364 9.33241125 0 0 Z " fill="#7183F4" transform="translate(407,353)"/>
<path d="M0 0 C11.30300863 -0.37059045 22.09512679 2.24328709 33 5 C33 6.32 33 7.64 33 9 C30.49523882 8.37861423 27.9952895 7.74126184 25.49609375 7.09765625 C18.3718073 5.27573639 11.32368474 3.57057569 4.0390625 2.4921875 C2 2 2 2 0 0 Z " fill="#8496FE" transform="translate(345,303)"/>
<path d="M0 0 C0.33 0 0.66 0 1 0 C1.59796571 4.63423429 2.05239328 9.07767317 1.9375 13.75 C1.86007733 19.94381335 2.94205195 25.91486816 4 32 C4.33408055 33.99987532 4.66763782 35.99983838 5 38 C4.34 38 3.68 38 3 38 C-0.35931032 29.82080966 -1.07408442 22.66841944 -1.125 13.875 C-1.12975342 13.19373047 -1.13450684 12.51246094 -1.1394043 11.81054688 C-1.12612836 7.77072786 -0.77781274 3.96314111 0 0 Z " fill="#3746C2" transform="translate(57,237)"/>
<path d="M0 0 C2 0.3125 2 0.3125 4 1 C4.33 1.66 4.66 2.32 5 3 C1.21511915 5.03374027 -2.57891335 7.04976448 -6.375 9.0625 C-7.45523437 9.64322266 -8.53546875 10.22394531 -9.6484375 10.82226562 C-10.6796875 11.36689453 -11.7109375 11.91152344 -12.7734375 12.47265625 C-13.72653809 12.98062744 -14.67963867 13.48859863 -15.66162109 14.01196289 C-16.43328613 14.33801514 -17.20495117 14.66406738 -18 15 C-18.66 14.67 -19.32 14.34 -20 14 C-17.53222836 9.1878453 -17.53222836 9.1878453 -14.875 8.25 C-13.946875 8.12625 -13.946875 8.12625 -13 8 C-12.67 7.67 -12.34 7.34 -12 7 C-9.17335773 5.4256676 -6.3203116 3.9036722 -3.46875 2.375 C-1.12711024 1.21833964 -1.12711024 1.21833964 0 0 Z " fill="#161CB7" transform="translate(284,198)"/>
<path d="M0 0 C9.51060681 1.94770597 9.51060681 1.94770597 14 4 C14.680625 4.28875 15.36125 4.5775 16.0625 4.875 C18.44271924 6.25706278 20.12944174 7.99583043 22 10 C17.70700357 11.26264601 15.12168689 10.62950412 11 9 C11 8.01 11 7.02 11 6 C10.236875 6.04125 9.47375 6.0825 8.6875 6.125 C6 6 6 6 3 4 C2.01 3.67 1.02 3.34 0 3 C0 2.01 0 1.02 0 0 Z " fill="#5D6FEB" transform="translate(263,292)"/>
<path d="M0 0 C1.45792884 -0.05399736 2.91642712 -0.09279177 4.375 -0.125 C5.18710938 -0.14820313 5.99921875 -0.17140625 6.8359375 -0.1953125 C9 0 9 0 11 2 C10.34 2 9.68 2 9 2 C9 2.99 9 3.98 9 5 C7.06447266 4.89171875 7.06447266 4.89171875 5.08984375 4.78125 C3.37240126 4.68740068 1.65495303 4.59365624 -0.0625 4.5 C-0.91005859 4.45230469 -1.75761719 4.40460938 -2.63085938 4.35546875 C-7.42944688 4.09608564 -12.19449788 3.94783715 -17 4 C-16 2 -16 2 -14.328125 1.37890625 C-11.43791344 0.90851947 -8.67727465 0.9056818 -5.75 0.9375 C-4.67234375 0.94652344 -3.5946875 0.95554688 -2.484375 0.96484375 C-1.66453125 0.97644531 -0.8446875 0.98804688 0 1 C0 0.67 0 0.34 0 0 Z " fill="#8987FE" transform="translate(139,173)"/>
<path d="M0 0 C1.32 0.99 2.64 1.98 4 3 C3.67 3.99 3.34 4.98 3 6 C1.67827105 6.37672468 0.34049348 6.69674082 -1 7 C-4.04561955 8.4981916 -7.04899786 10.05084 -10.04296875 11.6484375 C-11.66684551 12.48968151 -13.33137896 13.25142064 -15 14 C-15.66 13.67 -16.32 13.34 -17 13 C-16.21625 12.773125 -15.4325 12.54625 -14.625 12.3125 C-11.29457701 10.64728851 -11.31315473 9.364959 -10 6 C-6.79560679 3.57505379 -3.95832823 2.56547546 0 2 C0 1.34 0 0.68 0 0 Z " fill="#080AB9" transform="translate(312,183)"/>
<path d="M0 0 C0.66 0 1.32 0 2 0 C2.4846875 1.12277344 2.969375 2.24554688 3.46875 3.40234375 C6.96690368 11.28573008 10.18886729 18.20119644 16.43359375 24.3359375 C18 26 18 26 19 29 C9.68287014 25.13679981 3.79612332 12.75480941 0 4 C0 2.68 0 1.36 0 0 Z " fill="#2E3CB9" transform="translate(61,276)"/>
<path d="M0 0 C1.32 0.66 2.64 1.32 4 2 C-0.2588579 5.32439944 -4.86070538 7.73274583 -9.625 10.25 C-10.49640625 10.72179687 -11.3678125 11.19359375 -12.265625 11.6796875 C-13.09835938 12.12054688 -13.93109375 12.56140625 -14.7890625 13.015625 C-15.54912598 13.42071289 -16.30918945 13.82580078 -17.09228516 14.24316406 C-17.72183105 14.49291992 -18.35137695 14.74267578 -19 15 C-19.66 14.67 -20.32 14.34 -21 14 C-20.01 13.67 -19.02 13.34 -18 13 C-17.67 12.34 -17.34 11.68 -17 11 C-15.5625 9.375 -15.5625 9.375 -14 8 C-13.34 8 -12.68 8 -12 8 C-11.1646875 7.1028125 -11.1646875 7.1028125 -10.3125 6.1875 C-7.39053555 3.42347958 -4.7267882 2.47665193 -1 1 C-0.67 0.67 -0.34 0.34 0 0 Z " fill="#0204D2" transform="translate(256,213)"/>
<path d="M0 0 C0.66 0 1.32 0 2 0 C7.36410476 9.9649377 10.65652404 18.5716186 10 30 C9.34 30 8.68 30 8 30 C7.87044922 28.81857422 7.87044922 28.81857422 7.73828125 27.61328125 C6.7780093 20.16897116 5.00696773 13.70515398 2.12109375 6.77734375 C1.20430217 4.50612837 0.50958751 2.3876179 0 0 Z " fill="#958AFB" transform="translate(400,106)"/>
<path d="M0 0 C1.21816406 0.03480469 1.21816406 0.03480469 2.4609375 0.0703125 C3.68683594 0.09738281 3.68683594 0.09738281 4.9375 0.125 C5.87722656 0.15980469 5.87722656 0.15980469 6.8359375 0.1953125 C6.8359375 0.5253125 6.8359375 0.8553125 6.8359375 1.1953125 C5.6603125 1.411875 5.6603125 1.411875 4.4609375 1.6328125 C1.87172732 2.07330175 1.87172732 2.07330175 -0.1640625 3.1953125 C-0.1640625 3.8553125 -0.1640625 4.5153125 -0.1640625 5.1953125 C-1.28425781 5.54464844 -2.40445313 5.89398438 -3.55859375 6.25390625 C-5.03125472 6.71352655 -6.50391071 7.1731628 -7.9765625 7.6328125 C-8.71455078 7.86291016 -9.45253906 8.09300781 -10.21289062 8.33007812 C-13.20424661 9.2640309 -16.19103562 10.20430354 -19.1640625 11.1953125 C-19.1640625 9.5453125 -19.1640625 7.8953125 -19.1640625 6.1953125 C-17.9884375 6.0921875 -16.8128125 5.9890625 -15.6015625 5.8828125 C-9.80693917 5.16234423 -4.97228889 0.44876254 0 0 Z " fill="#8D8BF7" transform="translate(119.1640625,172.8046875)"/>
<path d="M0 0 C0.66 0.33 1.32 0.66 2 1 C2 4.3 2 7.6 2 11 C0.68 10.67 -0.64 10.34 -2 10 C-4.58777208 13.05580974 -4.58777208 13.05580974 -5 17 C-5.99 16.67 -6.98 16.34 -8 16 C-5.97450425 6.80736544 -5.97450425 6.80736544 -3 3 C-2.01 3 -1.02 3 0 3 C0 2.01 0 1.02 0 0 Z " fill="#000489" transform="translate(192,292)"/>
<path d="M0 0 C3.63768696 0.60490011 5.72712525 2.12985998 8.5625 4.4375 C11.00602618 6.41127579 13.38268521 8.25512347 16 10 C16.33 10.99 16.66 11.98 17 13 C19.49759982 14.69882448 19.49759982 14.69882448 22 16 C21.34 16.33 20.68 16.66 20 17 C17.87109375 16.07421875 17.87109375 16.07421875 15.4375 14.6875 C14.63183594 14.23761719 13.82617188 13.78773438 12.99609375 13.32421875 C11 12 11 12 10 10 C9.01 9.67 8.02 9.34 7 9 C6.67 8.01 6.34 7.02 6 6 C5.360625 5.87625 4.72125 5.7525 4.0625 5.625 C3.381875 5.41875 2.70125 5.2125 2 5 C0.75 2.4375 0.75 2.4375 0 0 Z " fill="#121FA5" transform="translate(79,305)"/>
<path d="M0 0 C0.66 0.66 1.32 1.32 2 2 C1.25 3.9375 1.25 3.9375 0 6 C-1.32594105 6.36162029 -2.65938457 6.69728039 -4 7 C-4.33 7.99 -4.66 8.98 -5 10 C-5.99 10.33 -6.98 10.66 -8 11 C-8.763125 11.639375 -9.52625 12.27875 -10.3125 12.9375 C-13.15396614 15.11816006 -15.57362915 16.04380349 -19 17 C-16.82575883 14.49962266 -15.26954202 13.56371414 -12 13 C-12 11.68 -12 10.36 -12 9 C-9.375 7.0625 -9.375 7.0625 -6 5 C-3.94842896 3.38739123 -1.98198342 1.69884293 0 0 Z " fill="#0F18A6" transform="translate(183,305)"/>
<path d="M0 0 C2.97 0.495 2.97 0.495 6 1 C2.68576864 5.48396007 0.66103175 7.79552516 -5 9 C-6.32 9 -7.64 9 -9 9 C-9 8.34 -9 7.68 -9 7 C-8.34 6.67 -7.68 6.34 -7 6 C-7.33 5.34 -7.66 4.68 -8 4 C-5.36 3.34 -2.72 2.68 0 2 C0 1.34 0 0.68 0 0 Z " fill="#6F6CE5" transform="translate(250,159)"/>
<path d="M0 0 C0.89203125 0.00902344 1.7840625 0.01804687 2.703125 0.02734375 C3.37859375 0.03894531 4.0540625 0.05054688 4.75 0.0625 C5.08 0.7225 5.41 1.3825 5.75 2.0625 C4.93917969 2.17207031 4.12835938 2.28164063 3.29296875 2.39453125 C-4.07442899 3.44946713 -11.12276855 4.92004566 -18.25 7.0625 C-18.58 6.4025 -18.91 5.7425 -19.25 5.0625 C-17.66800369 4.41339846 -16.08434276 3.76835306 -14.5 3.125 C-13.61828125 2.76535156 -12.7365625 2.40570313 -11.828125 2.03515625 C-7.71703392 0.4841537 -4.40438236 -0.0579524 0 0 Z " fill="#7788FB" transform="translate(342.25,303.9375)"/>
<path d="M0 0 C0.33 0 0.66 0 1 0 C1.55498446 8.69475652 0.57248853 15.9944965 -3 24 C-3.66 24.66 -4.32 25.32 -5 26 C-4.32940637 20.3192982 -3.49204129 14.69552654 -2.5 9.0625 C-2.30470703 7.91297852 -2.30470703 7.91297852 -2.10546875 6.74023438 C-1.11977209 1.11977209 -1.11977209 1.11977209 0 0 Z " fill="#756FEB" transform="translate(409,137)"/>
<path d="M0 0 C1.27875 0.28875 2.5575 0.5775 3.875 0.875 C8.90171927 1.99382464 13.94685368 3.0083596 19 4 C19.33 5.32 19.66 6.64 20 8 C19.01 8.495 19.01 8.495 18 9 C16.15234375 8.328125 16.15234375 8.328125 13.9375 7.25 C9.39007755 5.12393236 4.78760731 3.49400512 0 2 C0 1.34 0 0.68 0 0 Z " fill="#A09EFE" transform="translate(148,176)"/>
<path d="M0 0 C2.97 0.495 2.97 0.495 6 1 C6.33 1.99 6.66 2.98 7 4 C2.20517932 6.75702189 -1.58609132 7.53328373 -7 8 C-6 5 -6 5 -2.9375 3.3125 C-1.968125 2.879375 -0.99875 2.44625 0 2 C0 1.34 0 0.68 0 0 Z " fill="#6660DE" transform="translate(279,144)"/>
<path d="M0 0 C0.66 0.33 1.32 0.66 2 1 C1.8046875 2.80078125 1.8046875 2.80078125 1 5 C-1.1796875 6.66796875 -1.1796875 6.66796875 -3.875 8.1875 C-5.20144531 8.95126953 -5.20144531 8.95126953 -6.5546875 9.73046875 C-9 11 -9 11 -12 12 C-12.33 11.01 -12.66 10.02 -13 9 C-12.21625 8.7525 -11.4325 8.505 -10.625 8.25 C-7.88717448 7.28195976 -7.88717448 7.28195976 -7.0625 5.0625 C-5.4625727 1.95675877 -3.1601233 1.25088214 0 0 Z " fill="#8274F1" transform="translate(321,81)"/>
<path d="M0 0 C0.66 0 1.32 0 2 0 C2.45890625 0.95261719 2.9178125 1.90523438 3.390625 2.88671875 C4.01008974 4.15380572 4.62989981 5.4207239 5.25 6.6875 C5.55035156 7.31333984 5.85070312 7.93917969 6.16015625 8.58398438 C8.06496235 12.45438826 10.15828214 15.7119061 13 19 C12.67 19.66 12.34 20.32 12 21 C6.06969042 15.03459983 2.47006436 8.62651508 -1 1 C-0.67 0.67 -0.34 0.34 0 0 Z " fill="#2835AF" transform="translate(293,385)"/>
<path d="M0 0 C0.99 0.495 0.99 0.495 2 1 C2.61898709 3.76026777 3.12674927 6.46027309 3.5625 9.25 C3.8134194 10.77610464 4.06471228 12.30214792 4.31640625 13.828125 C4.43258301 14.54806641 4.54875977 15.26800781 4.66845703 16.00976562 C5.05855557 18.35150592 5.51211832 20.6767539 6 23 C5.34 23.33 4.68 23.66 4 24 C0.79283536 16.05180937 0.32410493 8.48260844 0 0 Z " fill="#3341C1" transform="translate(288,362)"/>
<path d="M0 0 C0.99 0.495 0.99 0.495 2 1 C3.23482184 4.70446553 3.14558202 8.1443008 3.125 12 C3.12886719 12.72445312 3.13273438 13.44890625 3.13671875 14.1953125 C3.13081927 17.39282879 3.01805798 19.94582607 2 23 C1.34 23 0.68 23 0 23 C0 15.41 0 7.82 0 0 Z " fill="#4E5DE4" transform="translate(206,239)"/>
<path d="M0 0 C0.66 0.33 1.32 0.66 2 1 C1.67 1.99 1.34 2.98 1 4 C0.85596652 5.33363703 0.75409577 6.67218046 0.68359375 8.01171875 C0.64169922 8.76904297 0.59980469 9.52636719 0.55664062 10.30664062 C0.51732422 11.09232422 0.47800781 11.87800781 0.4375 12.6875 C0.39431641 13.48478516 0.35113281 14.28207031 0.30664062 15.10351562 C0.20072632 17.06881447 0.09987449 19.03438496 0 21 C-0.99 20.67 -1.98 20.34 -3 20 C-2.88581333 17.41577541 -2.75907638 14.83320487 -2.625 12.25 C-2.5940625 11.52039063 -2.563125 10.79078125 -2.53125 10.0390625 C-2.3251506 6.26057344 -2.08487157 3.22053332 0 0 Z " fill="#584FD6" transform="translate(291,121)"/>
<path d="M0 0 C1 3 1 3 0.3125 5.625 C-0.3371875 6.800625 -0.3371875 6.800625 -1 8 C-2.32303717 8.3721042 -3.65737935 8.70630173 -5 9 C-5.28875 9.66 -5.5775 10.32 -5.875 11 C-6.24625 11.66 -6.6175 12.32 -7 13 C-10.125 13.75 -10.125 13.75 -13 14 C-11.50958227 10.20620942 -9.30937488 8.31656242 -6 6 C-5.34 6 -4.68 6 -4 6 C-4 5.34 -4 4.68 -4 4 C-3.34 4 -2.68 4 -2 4 C-1.34 2.68 -0.68 1.36 0 0 Z " fill="#2834B4" transform="translate(394,402)"/>
<path d="M0 0 C1.4540625 0.0309375 1.4540625 0.0309375 2.9375 0.0625 C1.24113829 2.16657096 0.38768536 2.99490678 -2.33081055 3.40307617 C-3.19488525 3.38736572 -4.05895996 3.37165527 -4.94921875 3.35546875 C-5.88701172 3.34580078 -6.82480469 3.33613281 -7.79101562 3.32617188 C-8.76748047 3.30103516 -9.74394531 3.27589844 -10.75 3.25 C-11.73806641 3.23646484 -12.72613281 3.22292969 -13.74414062 3.20898438 C-16.18414231 3.17362203 -18.62304719 3.12427033 -21.0625 3.0625 C-21.3925 2.4025 -21.7225 1.7425 -22.0625 1.0625 C-20.77472656 1.07410156 -19.48695313 1.08570313 -18.16015625 1.09765625 C-16.48177228 1.1070327 -14.80338674 1.11613305 -13.125 1.125 C-12.27486328 1.13337891 -11.42472656 1.14175781 -10.54882812 1.15039062 C-9.73994141 1.15361328 -8.93105469 1.15683594 -8.09765625 1.16015625 C-7.3487915 1.16539307 -6.59992676 1.17062988 -5.82836914 1.17602539 C-3.08202152 0.99946634 -3.2440889 0.0662059 0 0 Z " fill="#1C20B8" transform="translate(360.0625,194.9375)"/>
<path d="M0 0 C0.66 0.33 1.32 0.66 2 1 C1.67 2.32 1.34 3.64 1 5 C0.071875 5.12375 0.071875 5.12375 -0.875 5.25 C-3.18346804 5.78810733 -3.18346804 5.78810733 -4 8 C-5 10 -5 10 -6.75 10.625 C-7.4925 10.74875 -8.235 10.8725 -9 11 C-11.00382009 11.65509503 -13.00458132 12.31974363 -15 13 C-15 12.34 -15 11.68 -15 11 C-12.90349049 9.41728296 -10.81323795 7.94497569 -8.625 6.5 C-4.09157646 3.53147095 -4.09157646 3.53147095 0 0 Z " fill="#3031BF" transform="translate(392,178)"/>
<path d="M0 0 C1.32 0.99 2.64 1.98 4 3 C2.61518672 3.87191947 1.21654754 4.72190384 -0.1875 5.5625 C-0.96480469 6.03816406 -1.74210937 6.51382812 -2.54296875 7.00390625 C-5.48360967 8.19605797 -7.00446363 7.88855164 -10 7 C-10 6.34 -10 5.68 -10 5 C-6.7 3.35 -3.4 1.7 0 0 Z " fill="#111AA7" transform="translate(380,414)"/>
<path d="M0 0 C5.47932789 1.54545146 10.11429181 4.15543212 15 7 C14.01 7.495 14.01 7.495 13 8 C11.88625 7.484375 10.7725 6.96875 9.625 6.4375 C6.21851537 4.63661723 6.21851537 4.63661723 3.5625 5.8125 C3.046875 6.204375 2.53125 6.59625 2 7 C0.4375 5.1875 0.4375 5.1875 -1 3 C-0.67 2.01 -0.34 1.02 0 0 Z " fill="#3F50E8" transform="translate(237,275)"/>
<path d="M0 0 C5.77759884 -0.12036664 11.27959989 0.1679418 17 1 C17 1.99 17 2.98 17 4 C15.10353002 3.88506243 13.20781668 3.75760358 11.3125 3.625 C10.25675781 3.55539062 9.20101563 3.48578125 8.11328125 3.4140625 C5.09322731 3.01239911 2.75921946 2.25930981 0 1 C0 0.67 0 0.34 0 0 Z " fill="#8296FD" transform="translate(345,303)"/>
<path d="M0 0 C0.66 0.33 1.32 0.66 2 1 C-0.78473875 2.53378536 -3.57878338 4.0497558 -6.375 5.5625 C-7.1690625 6.00013672 -7.963125 6.43777344 -8.78125 6.88867188 C-9.54179687 7.29794922 -10.30234375 7.70722656 -11.0859375 8.12890625 C-12.1385376 8.70233765 -12.1385376 8.70233765 -13.21240234 9.28735352 C-13.80230957 9.52252686 -14.3922168 9.7577002 -15 10 C-15.66 9.67 -16.32 9.34 -17 9 C-14.5571003 4.23634558 -14.5571003 4.23634558 -11.9375 3.125 C-10 3 -10 3 -8 4 C-6.05003955 3.19232613 -6.05003955 3.19232613 -4 2 C-1.875 0.8125 -1.875 0.8125 0 0 Z " fill="#0608C8" transform="translate(281,203)"/>
<path d="M0 0 C2.86453858 3.41016497 4.34703566 6.90694544 6 11 C5.01 11.99 4.02 12.98 3 14 C0.56574762 9.03006806 -0.34615998 5.65394631 0 0 Z " fill="#2A21BE" transform="translate(300,163)"/>
<path d="M0 0 C-3.3 2.97 -6.6 5.94 -10 9 C-10.99 8.67 -11.98 8.34 -13 8 C-11.92807816 6.6781638 -10.84197305 5.36782073 -9.75 4.0625 C-9.14671875 3.33160156 -8.5434375 2.60070312 -7.921875 1.84765625 C-5.29585222 -0.67695508 -3.36328306 -1.68164153 0 0 Z " fill="#7766E2" transform="translate(314,92)"/>
<path d="M0 0 C0.33 0 0.66 0 1 0 C0.70245971 7.12608999 -0.71125344 12.6672508 -4 19 C-5.60844243 14.9585339 -4.33790192 11.84853569 -3.125 7.8125 C-2.75632812 6.56082031 -2.38765625 5.30914062 -2.0078125 4.01953125 C-1 1 -1 1 0 0 Z " fill="#596AE0" transform="translate(408,373)"/>
<path d="M0 0 C5.47932789 1.54545146 10.11429181 4.15543212 15 7 C14.01 7.495 14.01 7.495 13 8 C11.26379633 7.27931168 9.52932088 6.55252881 7.8203125 5.76953125 C5.58953565 4.82647752 3.38919922 4.36199988 1 4 C1 4.66 1 5.32 1 6 C0.34 6 -0.32 6 -1 6 C-0.67 4.02 -0.34 2.04 0 0 Z " fill="#414BEA" transform="translate(262,288)"/>
<path d="M0 0 C0.66 0.33 1.32 0.66 2 1 C1.67 1.66 1.34 2.32 1 3 C1.66 3 2.32 3 3 3 C2.30058404 6.14737182 1.23921302 9.02588876 0 12 C-0.33 12 -0.66 12 -1 12 C-1.99 8.7 -2.98 5.4 -4 2 C-2.68 1.34 -1.36 0.68 0 0 Z " fill="#5A5EF2" transform="translate(188,191)"/>
<path d="M0 0 C2.31 0.33 4.62 0.66 7 1 C7 1.66 7 2.32 7 3 C5.2097939 3.67057887 3.41778511 4.3363469 1.625 5 C0.62726563 5.37125 -0.37046875 5.7425 -1.3984375 6.125 C-4 7 -4 7 -6 7 C-5.67 6.01 -5.34 5.02 -5 4 C-2.4375 2.8125 -2.4375 2.8125 0 2 C0 1.34 0 0.68 0 0 Z " fill="#917CE6" transform="translate(330,77)"/>
<path d="M0 0 C1.32 0.66 2.64 1.32 4 2 C0.7 5.96 -2.6 9.92 -6 14 C-6.33 13.01 -6.66 12.02 -7 11 C-5.8203125 9.0625 -5.8203125 9.0625 -4.125 7 C-2.12428693 4.54331047 -1.01546215 3.04638646 0 0 Z " fill="#6265E1" transform="translate(76,196)"/>
<path d="M0 0 C5.99725275 2.10714286 5.99725275 2.10714286 8 5 C7.67 6.32 7.34 7.64 7 9 C4.36 7.35 1.72 5.7 -1 4 C-0.67 2.68 -0.34 1.36 0 0 Z " fill="#7998FA" transform="translate(378,309)"/>
<path d="M0 0 C0.66 0.33 1.32 0.66 2 1 C2.33 1.99 2.66 2.98 3 4 C0.69 5.32 -1.62 6.64 -4 8 C-4 6.68 -4 5.36 -4 4 C-4.66 3.67 -5.32 3.34 -6 3 C-4.03533587 1.93224776 -2.03144641 0.93446535 0 0 Z " fill="#5872F6" transform="translate(321,308)"/>
<path d="M0 0 C1.32 0.66 2.64 1.32 4 2 C1.00763031 4.54905566 -1.15643036 5.35940506 -5 6 C-7.00744615 6.64389782 -9.00945124 7.30562253 -11 8 C-11 7.34 -11 6.68 -11 6 C-10.28972656 5.65066406 -9.57945312 5.30132812 -8.84765625 4.94140625 C-7.92855469 4.48636719 -7.00945312 4.03132812 -6.0625 3.5625 C-4.68771484 2.88380859 -4.68771484 2.88380859 -3.28515625 2.19140625 C-1.09471096 1.19474606 -1.09471096 1.19474606 0 0 Z " fill="#0D13BE" transform="translate(256,213)"/>
<path d="M0 0 C0.33 0.66 0.66 1.32 1 2 C-0.98 2.99 -0.98 2.99 -3 4 C-2.34 4.66 -1.68 5.32 -1 6 C-4.13498292 7.85776765 -6.37471432 8.20140476 -10 8 C-10.33 7.34 -10.66 6.68 -11 6 C-7.37 4.02 -3.74 2.04 0 0 Z " fill="#4645EE" transform="translate(263,152)"/>
<path d="M0 0 C0.66 0.33 1.32 0.66 2 1 C2 4.3 2 7.6 2 11 C-1 10 -1 10 -2.1875 7.9375 C-2.455625 7.298125 -2.72375 6.65875 -3 6 C-3.99 6.495 -3.99 6.495 -5 7 C-4.34 5.68 -3.68 4.36 -3 3 C-2.01 3 -1.02 3 0 3 C0 2.01 0 1.02 0 0 Z " fill="#0718AD" transform="translate(192,292)"/>
<path d="M0 0 C0.33 0 0.66 0 1 0 C1.82622671 5.60563042 2.06795656 10.42289352 1 16 C0.34 16 -0.32 16 -1 16 C-1.09688221 10.55306686 -1.12862175 5.36095333 0 0 Z " fill="#404DC7" transform="translate(57,237)"/>
<path d="M0 0 C0.66 0.66 1.32 1.32 2 2 C0.02 5.63 -1.96 9.26 -4 13 C-4.66 13 -5.32 13 -6 13 C-4.58707905 8.1725201 -2.57025846 4.2837641 0 0 Z " fill="#565CD8" transform="translate(68,209)"/>
<path d="M0 0 C0.98484375 0.00902344 1.9696875 0.01804688 2.984375 0.02734375 C4.10585937 0.04474609 4.10585937 0.04474609 5.25 0.0625 C1.72844036 2.41020643 -0.25771843 2.43919614 -4.4375 2.6875 C-5.61699219 2.76226562 -6.79648438 2.83703125 -8.01171875 2.9140625 C-8.91535156 2.96304688 -9.81898437 3.01203125 -10.75 3.0625 C-9.75 1.0625 -9.75 1.0625 -8.046875 0.44140625 C-5.32835155 -0.00705765 -2.75442923 -0.03279082 0 0 Z " fill="#9B98FD" transform="translate(132.75,173.9375)"/>
<path d="M0 0 C-2.88628401 1.57554035 -5.53342384 2.46276373 -8.75 3.125 C-9.54921875 3.29257812 -10.3484375 3.46015625 -11.171875 3.6328125 C-11.77515625 3.75398438 -12.3784375 3.87515625 -13 4 C-13 3.01 -13 2.02 -13 1 C-4.57142857 -1.42857143 -4.57142857 -1.42857143 0 0 Z " fill="#1B2897" transform="translate(371,421)"/>
<path d="M0 0 C7.68490153 5.0940919 7.68490153 5.0940919 9 8.875 C9 9.57625 9 10.2775 9 11 C8.01 10.67 7.02 10.34 6 10 C5.690625 9.34 5.38125 8.68 5.0625 8 C4.17972859 5.79394438 4.17972859 5.79394438 1.875 5.25 C1.25625 5.1675 0.6375 5.085 0 5 C-0.5625 3.0625 -0.5625 3.0625 -1 1 C-0.67 0.67 -0.34 0.34 0 0 Z " fill="#18249E" transform="translate(306,405)"/>
<path d="M0 0 C1.45792884 -0.05399736 2.91642712 -0.09279177 4.375 -0.125 C5.18710937 -0.14820312 5.99921875 -0.17140625 6.8359375 -0.1953125 C9 0 9 0 11 2 C7.04 2.66 3.08 3.32 -1 4 C-0.67 2.68 -0.34 1.36 0 0 Z " fill="#9984F8" transform="translate(337,77)"/>
<path d="M0 0 C4.29 0 8.58 0 13 0 C8.99139749 2.67240167 6.46694861 3.19374793 1.6875 2.5625 C0.800625 2.376875 -0.08625 2.19125 -1 2 C-0.67 1.34 -0.34 0.68 0 0 Z " fill="#192597" transform="translate(126,325)"/>
<path d="M0 0 C3.96670899 0.44074544 6.68811135 1.82361603 10 4 C9.67 4.66 9.34 5.32 9 6 C5.08788267 4.84414715 2.1254959 3.64465038 -1 1 C-0.67 0.67 -0.34 0.34 0 0 Z " fill="#5968E7" transform="translate(242,280)"/>
<path d="M0 0 C0.66 0.33 1.32 0.66 2 1 C-0.24783891 6.17379682 -2.16545537 9.77697025 -7 13 C-5.54331217 10.03216871 -3.98767914 7.13584687 -2.375 4.25 C-1.92898438 3.45078125 -1.48296875 2.6515625 -1.0234375 1.828125 C-0.68570312 1.22484375 -0.34796875 0.6215625 0 0 Z " fill="#4055EB" transform="translate(311,318)"/>
<path d="M0 0 C2.72574271 0.37330824 3.80822085 0.79194601 5.703125 2.84765625 C6.21359375 3.57855469 6.7240625 4.30945313 7.25 5.0625 C8.03117187 6.16271484 8.03117187 6.16271484 8.828125 7.28515625 C9.21484375 7.85105469 9.6015625 8.41695313 10 9 C7 9 7 9 5.17578125 7.28515625 C4.56089844 6.55167969 3.94601563 5.81820313 3.3125 5.0625 C2.68988281 4.33160156 2.06726563 3.60070312 1.42578125 2.84765625 C0 1 0 1 0 0 Z " fill="#2532AD" transform="translate(70,295)"/>
<path d="M0 0 C2.97 0.495 2.97 0.495 6 1 C6.33 1.99 6.66 2.98 7 4 C5.02 4.66 3.04 5.32 1 6 C0.67 4.02 0.34 2.04 0 0 Z " fill="#5F59D5" transform="translate(279,144)"/>
<path d="M0 0 C1.32 0.33 2.64 0.66 4 1 C4.33 2.32 4.66 3.64 5 5 C2.125 5.625 2.125 5.625 -1 6 C-1.66 5.34 -2.32 4.68 -3 4 C-1.68 3.67 -0.36 3.34 1 3 C0.67 2.01 0.34 1.02 0 0 Z " fill="#616EF2" transform="translate(287,301)"/>
<path d="M0 0 C3.86695678 0 6.5088452 1.41909971 10 3 C9.01 3.495 9.01 3.495 8 4 C8 4.66 8 5.32 8 6 C7.34 5.67 6.68 5.34 6 5 C5.360625 4.87625 4.72125 4.7525 4.0625 4.625 C1.65636802 3.8958691 0.62962776 2.87407192 -1 1 C-0.67 0.67 -0.34 0.34 0 0 Z " fill="#0E1AC2" transform="translate(316,188)"/>
<path d="M0 0 C1.22589844 0.01353516 1.22589844 0.01353516 2.4765625 0.02734375 C3.41628906 0.04474609 3.41628906 0.04474609 4.375 0.0625 C4.375 0.3925 4.375 0.7225 4.375 1.0625 C3.59125 1.206875 2.8075 1.35125 2 1.5 C-0.58921018 1.94048925 -0.58921018 1.94048925 -2.625 3.0625 C-2.625 3.7225 -2.625 4.3825 -2.625 5.0625 C-4.275 4.7325 -5.925 4.4025 -7.625 4.0625 C-7.295 3.0725 -6.965 2.0825 -6.625 1.0625 C-4.21954362 -0.14022819 -2.67503047 -0.03821472 0 0 Z " fill="#7673F9" transform="translate(121.625,172.9375)"/>
<path d="M0 0 C0.99 0.33 1.98 0.66 3 1 C-0.17495261 3.72138795 -2.95197831 5.82820425 -7 7 C-7.99 6.67 -8.98 6.34 -10 6 C-9.36191406 5.65066406 -8.72382813 5.30132812 -8.06640625 4.94140625 C-7.24011719 4.48636719 -6.41382813 4.03132812 -5.5625 3.5625 C-4.73878906 3.11003906 -3.91507812 2.65757812 -3.06640625 2.19140625 C-1.07691202 1.16337603 -1.07691202 1.16337603 0 0 Z " fill="#1B18B3" transform="translate(301,183)"/>
<path d="M0 0 C0 0.66 0 1.32 0 2 C-4.1205746 3.99785435 -7.45194365 4.17835515 -12 4 C-8.36043372 1.57362248 -4.44144233 0 0 0 Z " fill="#14219A" transform="translate(161,320)"/>
<path d="M0 0 C1.32 0 2.64 0 4 0 C4 0.99 4 1.98 4 3 C5.32 3 6.64 3 8 3 C8 3.66 8 4.32 8 5 C3.48279689 5.36625971 3.48279689 5.36625971 1.1875 3.625 C0 2 0 2 0 0 Z " fill="#5565E6" transform="translate(221,270)"/>
<path d="M0 0 C0.66 0.33 1.32 0.66 2 1 C1.67 2.32 1.34 3.64 1 5 C-0.32 5.33 -1.64 5.66 -3 6 C-3.33 4.68 -3.66 3.36 -4 2 C-2.125 0.9375 -2.125 0.9375 0 0 Z " fill="#A184F2" transform="translate(321,81)"/>
<path d="M0 0 C2.97 0 5.94 0 9 0 C9 0.99 9 1.98 9 3 C2.84765625 2.4140625 2.84765625 2.4140625 1 2 C0.67 1.34 0.34 0.68 0 0 Z " fill="#AB9BFC" transform="translate(345,76)"/>
<path d="M0 0 C0.99 0 1.98 0 3 0 C3.33 0.99 3.66 1.98 4 3 C1.69 3.66 -0.62 4.32 -3 5 C-1.125 1.125 -1.125 1.125 0 0 Z " fill="#1F2DA9" transform="translate(384,411)"/>
<path d="M0 0 C0.99 0.33 1.98 0.66 3 1 C2.25 2.9375 2.25 2.9375 1 5 C-1.125 5.75 -1.125 5.75 -3 6 C-3.33 5.34 -3.66 4.68 -4 4 C-2.68 2.68 -1.36 1.36 0 0 Z " fill="#0911CE" transform="translate(214,234)"/>
<path d="M0 0 C2.0625 0.25 2.0625 0.25 4 1 C4.33 1.66 4.66 2.32 5 3 C3.02 3.66 1.04 4.32 -1 5 C-1.33 4.01 -1.66 3.02 -2 2 C-1.34 1.34 -0.68 0.68 0 0 Z " fill="#0B0EB7" transform="translate(284,198)"/>
<path d="M0 0 C0.33 0.99 0.66 1.98 1 3 C-0.9375 5.6875 -0.9375 5.6875 -3 8 C-3.99 7.67 -4.98 7.34 -6 7 C-4.02 4.69 -2.04 2.38 0 0 Z " fill="#4846C4" transform="translate(398,170)"/>
<path d="M0 0 C0.91058531 3.07322544 1.08886184 5.80097361 1 9 C0.01 8.67 -0.98 8.34 -2 8 C-2 6.35 -2 4.7 -2 3 C-1.34 3 -0.68 3 0 3 C0 2.01 0 1.02 0 0 Z " fill="#4B42D6" transform="translate(290,133)"/>
<path d="M0 0 C1.98 0.99 3.96 1.98 6 3 C5.67 3.66 5.34 4.32 5 5 C3.35 4.67 1.7 4.34 0 4 C0 2.68 0 1.36 0 0 Z " fill="#7385FB" transform="translate(305,312)"/>
<path d="M0 0 C2.125 0.375 2.125 0.375 4 1 C4 2.32 4 3.64 4 5 C1.13275314 4.42655063 0.1385485 4.1385485 -2 2 C-1.34 1.34 -0.68 0.68 0 0 Z " fill="#9DA8FE" transform="translate(374,307)"/>
<path d="M0 0 C-0.33 0.66 -0.66 1.32 -1 2 C-3.3140622 2.73075648 -5.64828869 3.40138258 -8 4 C-8.33 3.34 -8.66 2.68 -9 2 C-5.86501708 0.14223235 -3.62528568 -0.20140476 0 0 Z " fill="#6E80F8" transform="translate(332,307)"/>
<path d="M0 0 C2.97 0.495 2.97 0.495 6 1 C4.68 2.32 3.36 3.64 2 5 C0.68 4.34 -0.64 3.68 -2 3 C-1.34 2.34 -0.68 1.68 0 1 C0 0.67 0 0.34 0 0 Z " fill="#7A6AED" transform="translate(250,159)"/>
<path d="M0 0 C0.33 0 0.66 0 1 0 C1 5.61 1 11.22 1 17 C0.67 17 0.34 17 0 17 C0 11.39 0 5.78 0 0 Z " fill="#373FD8" transform="translate(210,242)"/>
<path d="M0 0 C0.33 0 0.66 0 1 0 C1 5.61 1 11.22 1 17 C0.67 17 0.34 17 0 17 C0 11.39 0 5.78 0 0 Z " fill="#2930BC" transform="translate(54,242)"/>
<path d="M0 0 C2.475 0.99 2.475 0.99 5 2 C5 3.32 5 4.64 5 6 C2.525 5.01 2.525 5.01 0 4 C0 2.68 0 1.36 0 0 Z " fill="#8C8CFE" transform="translate(167,181)"/>
<path d="M0 0 C2.125 0.9375 2.125 0.9375 4 2 C4 2.66 4 3.32 4 4 C2.35 4.33 0.7 4.66 -1 5 C-1.33 3.68 -1.66 2.36 -2 1 C-1.34 0.67 -0.68 0.34 0 0 Z " fill="#7776EA" transform="translate(236,166)"/>
<path d="M0 0 C2.64 0 5.28 0 8 0 C7.34 1.32 6.68 2.64 6 4 C5.34 4 4.68 4 4 4 C4 3.34 4 2.68 4 2 C2.68 1.67 1.36 1.34 0 1 C0 0.67 0 0.34 0 0 Z " fill="#5147DB" transform="translate(281,143)"/>
<path d="M0 0 C3.63 0 7.26 0 11 0 C11 0.33 11 0.66 11 1 C7.37 1 3.74 1 0 1 C0 0.67 0 0.34 0 0 Z " fill="#7B7BFF" transform="translate(127,172)"/>
<path d="M0 0 C3.3 0 6.6 0 10 0 C10 0.33 10 0.66 10 1 C6.7 1 3.4 1 0 1 C0 0.67 0 0.34 0 0 Z " fill="#000CA5" transform="translate(339,426)"/>
<path d="M0 0 C0.33 0 0.66 0 1 0 C1 3.3 1 6.6 1 10 C0.67 10 0.34 10 0 10 C0 6.7 0 3.4 0 0 Z " fill="#3F61F6" transform="translate(411,366)"/>
<path d="M0 0 C3.3 0 6.6 0 10 0 C10 0.33 10 0.66 10 1 C6.7 1 3.4 1 0 1 C0 0.67 0 0.34 0 0 Z " fill="#000C98" transform="translate(350,199)"/>
<path d="M0 0 C3.3 0 6.6 0 10 0 C10 0.33 10 0.66 10 1 C6.7 1 3.4 1 0 1 C0 0.67 0 0.34 0 0 Z " fill="#0000A7" transform="translate(338,199)"/>
<path d="M0 0 C0.33 0 0.66 0 1 0 C1 3.3 1 6.6 1 10 C0.67 10 0.34 10 0 10 C0 6.7 0 3.4 0 0 Z " fill="#7B7BF6" transform="translate(411,139)"/>
<path d="M0 0 C2.97 0 5.94 0 9 0 C9 0.33 9 0.66 9 1 C6.03 1 3.06 1 0 1 C0 0.67 0 0.34 0 0 Z " fill="#000E75" transform="translate(351,426)"/>
<path d="M0 0 C0.33 0 0.66 0 1 0 C1 2.97 1 5.94 1 9 C0.67 9 0.34 9 0 9 C0 6.03 0 3.06 0 0 Z " fill="#2A2AB3" transform="translate(287,368)"/>
<path d="M0 0 C0.33 0 0.66 0 1 0 C1 2.97 1 5.94 1 9 C0.67 9 0.34 9 0 9 C0 6.03 0 3.06 0 0 Z " fill="#6C75F7" transform="translate(411,353)"/>
<path d="M0 0 C2.97 0 5.94 0 9 0 C9 0.33 9 0.66 9 1 C6.03 1 3.06 1 0 1 C0 0.67 0 0.34 0 0 Z " fill="#000E75" transform="translate(135,328)"/>
<path d="M0 0 C2.97 0 5.94 0 9 0 C9 0.33 9 0.66 9 1 C6.03 1 3.06 1 0 1 C0 0.67 0 0.34 0 0 Z " fill="#000E75" transform="translate(121,328)"/>
<path d="M0 0 C2.97 0 5.94 0 9 0 C9 0.33 9 0.66 9 1 C6.03 1 3.06 1 0 1 C0 0.67 0 0.34 0 0 Z " fill="#6363FF" transform="translate(345,301)"/>
<path d="M0 0 C0.33 0 0.66 0 1 0 C1 2.97 1 5.94 1 9 C0.67 9 0.34 9 0 9 C0 6.03 0 3.06 0 0 Z " fill="#756CF7" transform="translate(411,126)"/>
<path d="M0 0 C2.97 0 5.94 0 9 0 C9 0.33 9 0.66 9 1 C6.03 1 3.06 1 0 1 C0 0.67 0 0.34 0 0 Z " fill="#A971FF" transform="translate(345,74)"/>
<path d="M0 0 C2.64 0 5.28 0 8 0 C8 0.33 8 0.66 8 1 C5.36 1 2.72 1 0 1 C0 0.67 0 0.34 0 0 Z " fill="#8484D4" transform="translate(337,302)"/>
<path d="M0 0 C0.33 0 0.66 0 1 0 C1 2.64 1 5.28 1 8 C0.67 8 0.34 8 0 8 C0 5.36 0 2.72 0 0 Z " fill="#4242E4" transform="translate(287,125)"/>
<path d="M0 0 C2.31 0 4.62 0 7 0 C7 0.33 7 0.66 7 1 C4.69 1 2.38 1 0 1 C0 0.67 0 0.34 0 0 Z " fill="#9191F5" transform="translate(355,302)"/>
<path d="M0 0 C0.33 0 0.66 0 1 0 C1 2.31 1 4.62 1 7 C0.67 7 0.34 7 0 7 C0 4.69 0 2.38 0 0 Z " fill="#394BD7" transform="translate(55,260)"/>
<path d="M0 0 C0.33 0 0.66 0 1 0 C1 2.31 1 4.62 1 7 C0.67 7 0.34 7 0 7 C0 4.69 0 2.38 0 0 Z " fill="#3C60E0" transform="translate(55,235)"/>
<path d="M0 0 C2.31 0 4.62 0 7 0 C7 0.33 7 0.66 7 1 C4.69 1 2.38 1 0 1 C0 0.67 0 0.34 0 0 Z " fill="#B691FF" transform="translate(355,75)"/>
<path d="M0 0 C2.31 0 4.62 0 7 0 C7 0.33 7 0.66 7 1 C4.69 1 2.38 1 0 1 C0 0.67 0 0.34 0 0 Z " fill="#9191EC" transform="translate(337,75)"/>
<path d="M0 0 C0 3 0 3 0 3 Z " fill="#1515AA" transform="translate(395,405)"/>
<path d="M0 0 C0.99 0.495 0.99 0.495 2 1 C1.67 1.66 1.34 2.32 1 3 C0.67 2.01 0.34 1.02 0 0 Z " fill="#0000AA" transform="translate(302,404)"/>
<path d="M0 0 C1 4 1 4 1 4 Z " fill="#0F0F8F" transform="translate(290,383)"/>
<path d="M0 0 C1 4 1 4 1 4 Z " fill="#2F3FEF" transform="translate(409,379)"/>
<path d="M0 0 C1 4 1 4 1 4 Z " fill="#3F3FFF" transform="translate(410,349)"/>
<path d="M0 0 C4 1 4 1 4 1 Z " fill="#001F7F" transform="translate(145,327)"/>
<path d="M0 0 C4 1 4 1 4 1 Z " fill="#001F9F" transform="translate(116,327)"/>
<path d="M0 0 C0.99 0.495 0.99 0.495 2 1 C1.67 1.66 1.34 2.32 1 3 C0.67 2.01 0.34 1.02 0 0 Z " fill="#0000AA" transform="translate(72,299)"/>
<path d="M0 0 C1 4 1 4 1 4 Z " fill="#0F2F6F" transform="translate(57,270)"/>
<path d="M0 0 C1 4 1 4 1 4 Z " fill="#0F2F8F" transform="translate(56,231)"/>
<path d="M0 0 C0 3 0 3 0 3 Z " fill="#1515AA" transform="translate(395,178)"/>
<path d="M0 0 C1 4 1 4 1 4 Z " fill="#3F3FEF" transform="translate(409,152)"/>
<path d="M0 0 C1 4 1 4 1 4 Z " fill="#3F3FFF" transform="translate(410,122)"/>
<path d="M0 0 C3 1 3 1 3 1 Z " fill="#003871" transform="translate(361,425)"/>
<path d="M0 0 C3 1 3 1 3 1 Z " fill="#00008D" transform="translate(335,425)"/>
<path d="M0 0 C3 1 3 1 3 1 Z " fill="#00007F" transform="translate(364,424)"/>
<path d="M0 0 C3 1 3 1 3 1 Z " fill="#0000A9" transform="translate(332,424)"/>
<path d="M0 0 C3 1 3 1 3 1 Z " fill="#001C63" transform="translate(367,423)"/>
<path d="" fill="#38388D" transform="translate(0,0)"/>
<path d="" fill="#3855E2" transform="translate(0,0)"/>
<path d="" fill="#1C46FF" transform="translate(0,0)"/>
<path d="" fill="#3838E2" transform="translate(0,0)"/>
<path d="" fill="#94A9E9" transform="translate(0,0)"/>
<path d="" fill="#0000FF" transform="translate(0,0)"/>
<path d="" fill="#55C6FF" transform="translate(0,0)"/>
<path d="" fill="#A9A9E9" transform="translate(0,0)"/>
<path d="" fill="#7F7FFF" transform="translate(0,0)"/>
<path d="M0 0 C3 1 3 1 3 1 Z " fill="#000000" transform="translate(131,329)"/>
<path d="M0 0 C3 1 3 1 3 1 Z " fill="#000071" transform="translate(153,325)"/>
<path d="M0 0 C3 1 3 1 3 1 Z " fill="#000071" transform="translate(109,325)"/>
<path d="M0 0 C3 1 3 1 3 1 Z " fill="#00007F" transform="translate(156,324)"/>
<path d="M0 0 C3 1 3 1 3 1 Z " fill="#00007F" transform="translate(106,324)"/>
<path d="M0 0 C3 1 3 1 3 1 Z " fill="#000063" transform="translate(159,323)"/>
<path d="M0 0 C3 1 3 1 3 1 Z " fill="#000063" transform="translate(103,323)"/>
<path d="M0 0 C3 1 3 1 3 1 Z " fill="#7171FF" transform="translate(369,305)"/>
<path d="M0 0 C3 1 3 1 3 1 Z " fill="#6363FF" transform="translate(327,305)"/>
<path d="M0 0 C3 1 3 1 3 1 Z " fill="#6363FF" transform="translate(365,304)"/>
<path d="M0 0 C3 1 3 1 3 1 Z " fill="#3838FF" transform="translate(330,304)"/>
<path d="M0 0 C3 1 3 1 3 1 Z " fill="#547FFF" transform="translate(362,303)"/>
<path d="M0 0 C3 1 3 1 3 1 Z " fill="#A9A9FF" transform="translate(334,303)"/>
<path d="" fill="#3838E2" transform="translate(0,0)"/>
<path d="" fill="#153F94" transform="translate(0,0)"/>
<path d="" fill="#3838C6" transform="translate(0,0)"/>
<path d="" fill="#3F3FE9" transform="translate(0,0)"/>
<path d="" fill="#3838E2" transform="translate(0,0)"/>
<path d="" fill="#3F69BF" transform="translate(0,0)"/>
<path d="M0 0 C3 1 3 1 3 1 Z " fill="#003871" transform="translate(361,198)"/>
<path d="M0 0 C3 1 3 1 3 1 Z " fill="#0000E9" transform="translate(335,198)"/>
<path d="M0 0 C3 1 3 1 3 1 Z " fill="#000094" transform="translate(364,197)"/>
<path d="M0 0 C3 1 3 1 3 1 Z " fill="#0000BF" transform="translate(332,197)"/>
<path d="M0 0 C3 1 3 1 3 1 Z " fill="#0000B8" transform="translate(367,196)"/>
<path d="M0 0 C3 1 3 1 3 1 Z " fill="#000071" transform="translate(328,196)"/>
<path d="M0 0 C3 1 3 1 3 1 Z " fill="#6363FF" transform="translate(157,177)"/>
<path d="M0 0 C3 1 3 1 3 1 Z " fill="#6363FF" transform="translate(105,177)"/>
<path d="M0 0 C3 1 3 1 3 1 Z " fill="#7F7FFF" transform="translate(154,176)"/>
<path d="M0 0 C3 1 3 1 3 1 Z " fill="#5454FF" transform="translate(108,176)"/>
<path d="M0 0 C3 1 3 1 3 1 Z " fill="#7171FF" transform="translate(151,175)"/>
<path d="M0 0 C3 1 3 1 3 1 Z " fill="#7171FF" transform="translate(111,175)"/>
<path d="" fill="#4646AA" transform="translate(0,0)"/>
<path d="" fill="#5555E2" transform="translate(0,0)"/>
<path d="" fill="#A9A9E9" transform="translate(0,0)"/>
<path d="" fill="#0000FF" transform="translate(0,0)"/>
<path d="" fill="#943FE9" transform="translate(0,0)"/>
<path d="" fill="#C6AAFF" transform="translate(0,0)"/>
<path d="" fill="#3F3FE9" transform="translate(0,0)"/>
<path d="" fill="#B8B8FF" transform="translate(0,0)"/>
<path d="" fill="#3838E2" transform="translate(0,0)"/>
<path d="" fill="#D47FFF" transform="translate(0,0)"/>
<path d="M0 0 C3 1 3 1 3 1 Z " fill="#7171FF" transform="translate(369,78)"/>
<path d="M0 0 C3 1 3 1 3 1 Z " fill="#8D63FF" transform="translate(327,78)"/>
<path d="M0 0 C3 1 3 1 3 1 Z " fill="#B863FF" transform="translate(365,77)"/>
<path d="M0 0 C3 1 3 1 3 1 Z " fill="#947FFF" transform="translate(362,76)"/>
<path d="M0 0 C3 1 3 1 3 1 Z " fill="#A9A9FF" transform="translate(334,76)"/>
<path d="M0 0 C2 1 2 1 2 1 Z " fill="#006AD4" transform="translate(371,422)"/>
<path d="M0 0 C2 1 2 1 2 1 Z " fill="#0000D4" transform="translate(326,422)"/>
<path d="M0 0 C2 1 2 1 2 1 Z " fill="#00007F" transform="translate(320,419)"/>
<path d="" fill="#0000FF" transform="translate(0,0)"/>
<path d="" fill="#0000BF" transform="translate(0,0)"/>
<path d="" fill="#2A2AD4" transform="translate(0,0)"/>
<path d="" fill="#0000BF" transform="translate(0,0)"/>
<path d="" fill="#2A2AD4" transform="translate(0,0)"/>
<path d="" fill="#3F7FBF" transform="translate(0,0)"/>
<path d="" fill="#2A2A55" transform="translate(0,0)"/>
<path d="" fill="#3F3FFF" transform="translate(0,0)"/>
<path d="" fill="#2A2AD4" transform="translate(0,0)"/>
<path d="" fill="#2A2AD4" transform="translate(0,0)"/>
<path d="M0 0 C2 1 2 1 2 1 Z " fill="#00007F" transform="translate(267,351)"/>
<path d="M0 0 C2 1 2 1 2 1 Z " fill="#00007F" transform="translate(265,350)"/>
<path d="" fill="#2A55FF" transform="translate(0,0)"/>
<path d="M0 0 C2 1 2 1 2 1 Z " fill="#00007F" transform="translate(242,338)"/>
<path d="" fill="#5555FF" transform="translate(0,0)"/>
<path d="M0 0 C2 1 2 1 2 1 Z " fill="#00007F" transform="translate(240,337)"/>
<path d="" fill="#5555FF" transform="translate(0,0)"/>
<path d="" fill="#BFBFFF" transform="translate(0,0)"/>
<path d="" fill="#3F3FFF" transform="translate(0,0)"/>
<path d="M0 0 C2 1 2 1 2 1 Z " fill="#00007F" transform="translate(219,326)"/>
<path d="M0 0 C2 1 2 1 2 1 Z " fill="#00007F" transform="translate(217,325)"/>
<path d="" fill="#BFBFFF" transform="translate(0,0)"/>
<path d="M0 0 C2 1 2 1 2 1 Z " fill="#00007F" transform="translate(162,322)"/>
<path d="M0 0 C2 1 2 1 2 1 Z " fill="#00007F" transform="translate(101,322)"/>
<path d="M0 0 C2 1 2 1 2 1 Z " fill="#00007F" transform="translate(200,316)"/>
<path d="M0 0 C2 1 2 1 2 1 Z " fill="#7F7FFF" transform="translate(308,312)"/>
<path d="M0 0 C2 1 2 1 2 1 Z " fill="#7F7FFF" transform="translate(306,311)"/>
<path d="M0 0 C2 1 2 1 2 1 Z " fill="#7F7FFF" transform="translate(323,307)"/>
<path d="M0 0 C2 1 2 1 2 1 Z " fill="#7F7FFF" transform="translate(372,306)"/>
<path d="M0 0 C2 1 2 1 2 1 Z " fill="#7F7FBF" transform="translate(325,306)"/>
<path d="M0 0 C2 1 2 1 2 1 Z " fill="#7F7FFF" transform="translate(283,299)"/>
<path d="M0 0 C2 1 2 1 2 1 Z " fill="#7F7FFF" transform="translate(281,298)"/>
<path d="" fill="#0000BF" transform="translate(0,0)"/>
<path d="" fill="#0000BF" transform="translate(0,0)"/>
<path d="" fill="#003FFF" transform="translate(0,0)"/>
<path d="M0 0 C2 1 2 1 2 1 Z " fill="#7F7FFF" transform="translate(260,287)"/>
<path d="M0 0 C2 1 2 1 2 1 Z " fill="#7F7FFF" transform="translate(258,286)"/>
<path d="" fill="#2A2A55" transform="translate(0,0)"/>
<path d="" fill="#2A2AD4" transform="translate(0,0)"/>
<path d="" fill="#2A2AD4" transform="translate(0,0)"/>
<path d="M0 0 C2 1 2 1 2 1 Z " fill="#7F7FFF" transform="translate(235,274)"/>
<path d="M0 0 C2 1 2 1 2 1 Z " fill="#007FBF" transform="translate(233,273)"/>
<path d="M0 0 C2 1 2 1 2 1 Z " fill="#0000D4" transform="translate(215,237)"/>
<path d="M0 0 C2 1 2 1 2 1 Z " fill="#0000D4" transform="translate(217,236)"/>
<path d="M0 0 C2 1 2 1 2 1 Z " fill="#0000FF" transform="translate(219,235)"/>
<path d="M0 0 C2 1 2 1 2 1 Z " fill="#0000FF" transform="translate(221,234)"/>
<path d="M0 0 C2 1 2 1 2 1 Z " fill="#0000FF" transform="translate(223,233)"/>
<path d="M0 0 C2 1 2 1 2 1 Z " fill="#0000FF" transform="translate(225,232)"/>
<path d="M0 0 C2 1 2 1 2 1 Z " fill="#0000FF" transform="translate(227,231)"/>
<path d="M0 0 C2 1 2 1 2 1 Z " fill="#0000FF" transform="translate(229,230)"/>
<path d="M0 0 C2 1 2 1 2 1 Z " fill="#0000BF" transform="translate(231,229)"/>
<path d="M0 0 C2 1 2 1 2 1 Z " fill="#0000BF" transform="translate(233,228)"/>
<path d="" fill="#3F3FFF" transform="translate(0,0)"/>
<path d="" fill="#7F7FFF" transform="translate(0,0)"/>
<path d="" fill="#AAAAD4" transform="translate(0,0)"/>
<path d="" fill="#2A2AFF" transform="translate(0,0)"/>
<path d="M0 0 C2 1 2 1 2 1 Z " fill="#0000BF" transform="translate(260,214)"/>
<path d="M0 0 C2 1 2 1 2 1 Z " fill="#0000BF" transform="translate(262,213)"/>
<path d="" fill="#2A2AFF" transform="translate(0,0)"/>
<path d="" fill="#2A2AFF" transform="translate(0,0)"/>
<path d="" fill="#007FFF" transform="translate(0,0)"/>
<path d="M0 0 C2 1 2 1 2 1 Z " fill="#0000BF" transform="translate(289,199)"/>
<path d="M0 0 C2 1 2 1 2 1 Z " fill="#0000BF" transform="translate(291,198)"/>
<path d="M0 0 C2 1 2 1 2 1 Z " fill="#0000BF" transform="translate(293,197)"/>
<path d="M0 0 C2 1 2 1 2 1 Z " fill="#5555AA" transform="translate(371,195)"/>
<path d="M0 0 C2 1 2 1 2 1 Z " fill="#0000D4" transform="translate(326,195)"/>
<path d="M0 0 C2 1 2 1 2 1 Z " fill="#0000BF" transform="translate(320,192)"/>
<path d="M0 0 C2 1 2 1 2 1 Z " fill="#7F7FFF" transform="translate(196,187)"/>
<path d="M0 0 C2 1 2 1 2 1 Z " fill="#7FBFFF" transform="translate(172,184)"/>
<path d="M0 0 C2 1 2 1 2 1 Z " fill="#7F7FFF" transform="translate(91,184)"/>
<path d="M0 0 C2 1 2 1 2 1 Z " fill="#6A6AFF" transform="translate(161,178)"/>
<path d="M0 0 C2 1 2 1 2 1 Z " fill="#6A6AD4" transform="translate(102,178)"/>
<path d="M0 0 C2 1 2 1 2 1 Z " fill="#7F7FFF" transform="translate(215,177)"/>
<path d="M0 0 C2 1 2 1 2 1 Z " fill="#7F7FFF" transform="translate(217,176)"/>
<path d="M0 0 C2 1 2 1 2 1 Z " fill="#7F7FFF" transform="translate(219,175)"/>
<path d="" fill="#0000FF" transform="translate(0,0)"/>
<path d="" fill="#2A2AFF" transform="translate(0,0)"/>
<path d="" fill="#AAAAD4" transform="translate(0,0)"/>
<path d="" fill="#7F7FFF" transform="translate(0,0)"/>
<path d="" fill="#3F3FFF" transform="translate(0,0)"/>
<path d="M0 0 C2 1 2 1 2 1 Z " fill="#7F7FFF" transform="translate(246,161)"/>
<path d="M0 0 C2 1 2 1 2 1 Z " fill="#7F7FBF" transform="translate(248,160)"/>
<path d="M0 0 C2 1 2 1 2 1 Z " fill="#7F7FFF" transform="translate(273,147)"/>
<path d="M0 0 C2 1 2 1 2 1 Z " fill="#7F7FFF" transform="translate(275,146)"/>
<path d="M0 0 C2 1 2 1 2 1 Z " fill="#7F7FBF" transform="translate(277,145)"/>
<path d="" fill="#7F7FFF" transform="translate(0,0)"/>
<path d="" fill="#D455FF" transform="translate(0,0)"/>
<path d="" fill="#7F7FBF" transform="translate(0,0)"/>
<path d="" fill="#5555FF" transform="translate(0,0)"/>
<path d="" fill="#AAAAD4" transform="translate(0,0)"/>
<path d="" fill="#AA2AFF" transform="translate(0,0)"/>
<path d="" fill="#2A2AFF" transform="translate(0,0)"/>
<path d="" fill="#BFBFFF" transform="translate(0,0)"/>
<path d="" fill="#3F3FFF" transform="translate(0,0)"/>
<path d="" fill="#BFBFFF" transform="translate(0,0)"/>
<path d="" fill="#BFBFFF" transform="translate(0,0)"/>
<path d="M0 0 C2 1 2 1 2 1 Z " fill="#7F7FFF" transform="translate(372,79)"/>
<path d="M0 0 C2 1 2 1 2 1 Z " fill="#7F7FFF" transform="translate(325,79)"/>
<path d="" fill="#000000" transform="translate(0,0)"/>
<path d="" fill="#00007F" transform="translate(0,0)"/>
<path d="" fill="#000055" transform="translate(0,0)"/>
<path d="" fill="#005555" transform="translate(0,0)"/>
<path d="" fill="#0000AA" transform="translate(0,0)"/>
<path d="" fill="#0000AA" transform="translate(0,0)"/>
<path d="" fill="#00007F" transform="translate(0,0)"/>
<path d="" fill="#0055AA" transform="translate(0,0)"/>
<path d="" fill="#00007F" transform="translate(0,0)"/>
<path d="" fill="#00007F" transform="translate(0,0)"/>
<path d="" fill="#0055FF" transform="translate(0,0)"/>
<path d="" fill="#0055AA" transform="translate(0,0)"/>
<path d="" fill="#0000AA" transform="translate(0,0)"/>
<path d="" fill="#007F7F" transform="translate(0,0)"/>
<path d="" fill="#0000AA" transform="translate(0,0)"/>
<path d="" fill="#00007F" transform="translate(0,0)"/>
<path d="" fill="#0055AA" transform="translate(0,0)"/>
<path d="" fill="#7F7FFF" transform="translate(0,0)"/>
<path d="" fill="#0000FF" transform="translate(0,0)"/>
<path d="" fill="#007FFF" transform="translate(0,0)"/>
<path d="" fill="#5555AA" transform="translate(0,0)"/>
<path d="" fill="#5555AA" transform="translate(0,0)"/>
<path d="" fill="#55AAFF" transform="translate(0,0)"/>
<path d="" fill="#7F7FFF" transform="translate(0,0)"/>
<path d="" fill="#5555FF" transform="translate(0,0)"/>
<path d="" fill="#AAAAFF" transform="translate(0,0)"/>
<path d="" fill="#5555FF" transform="translate(0,0)"/>
<path d="" fill="#7F7FFF" transform="translate(0,0)"/>
<path d="" fill="#55AAFF" transform="translate(0,0)"/>
<path d="" fill="#7F7FFF" transform="translate(0,0)"/>
<path d="" fill="#7FFFFF" transform="translate(0,0)"/>
<path d="" fill="#AAAAFF" transform="translate(0,0)"/>
<path d="" fill="#0000FF" transform="translate(0,0)"/>
<path d="" fill="#0000FF" transform="translate(0,0)"/>
<path d="" fill="#5555FF" transform="translate(0,0)"/>
<path d="" fill="#7F7FFF" transform="translate(0,0)"/>
<path d="" fill="#0055AA" transform="translate(0,0)"/>
<path d="" fill="#005555" transform="translate(0,0)"/>
<path d="" fill="#0000AA" transform="translate(0,0)"/>
<path d="" fill="#0000AA" transform="translate(0,0)"/>
<path d="" fill="#00007F" transform="translate(0,0)"/>
<path d="" fill="#0055AA" transform="translate(0,0)"/>
<path d="" fill="#0000AA" transform="translate(0,0)"/>
<path d="" fill="#0000AA" transform="translate(0,0)"/>
<path d="" fill="#0000AA" transform="translate(0,0)"/>
<path d="" fill="#0000AA" transform="translate(0,0)"/>
<path d="" fill="#007F7F" transform="translate(0,0)"/>
<path d="" fill="#0055AA" transform="translate(0,0)"/>
<path d="" fill="#0000AA" transform="translate(0,0)"/>
<path d="" fill="#00007F" transform="translate(0,0)"/>
<path d="" fill="#007FFF" transform="translate(0,0)"/>
<path d="" fill="#0055AA" transform="translate(0,0)"/>
<path d="" fill="#5555AA" transform="translate(0,0)"/>
<path d="" fill="#5555AA" transform="translate(0,0)"/>
<path d="" fill="#FFFFFF" transform="translate(0,0)"/>
<path d="" fill="#7F7FFF" transform="translate(0,0)"/>
<path d="" fill="#5555FF" transform="translate(0,0)"/>
<path d="" fill="#5555FF" transform="translate(0,0)"/>
<path d="" fill="#7F7FFF" transform="translate(0,0)"/>
<path d="" fill="#000000" transform="translate(0,0)"/>
<path d="" fill="#5555FF" transform="translate(0,0)"/>
<path d="" fill="#5555FF" transform="translate(0,0)"/>
<path d="" fill="#5555FF" transform="translate(0,0)"/>
<path d="" fill="#7F7FFF" transform="translate(0,0)"/>
<path d="" fill="#5555FF" transform="translate(0,0)"/>
<path d="" fill="#7F7FFF" transform="translate(0,0)"/>
<path d="" fill="#5555AA" transform="translate(0,0)"/>
<path d="" fill="#0000AA" transform="translate(0,0)"/>
<path d="" fill="#7F7FFF" transform="translate(0,0)"/>
<path d="" fill="#7F7FBF" transform="translate(0,0)"/>
<path d="" fill="#AAAAFF" transform="translate(0,0)"/>
<path d="" fill="#5555FF" transform="translate(0,0)"/>
<path d="" fill="#7F7F7F" transform="translate(0,0)"/>
<path d="" fill="#0000AA" transform="translate(0,0)"/>
<path d="" fill="#5555FF" transform="translate(0,0)"/>
<path d="" fill="#5555FF" transform="translate(0,0)"/>
<path d="" fill="#5555AA" transform="translate(0,0)"/>
<path d="" fill="#7F7F7F" transform="translate(0,0)"/>
<path d="" fill="#5555AA" transform="translate(0,0)"/>
<path d="" fill="#7F7FFF" transform="translate(0,0)"/>
<path d="" fill="#5555AA" transform="translate(0,0)"/>
<path d="" fill="#AAAAFF" transform="translate(0,0)"/>
<path d="" fill="#AA55FF" transform="translate(0,0)"/>
<path d="" fill="#5555FF" transform="translate(0,0)"/>
<path d="" fill="#FFFFFF" transform="translate(0,0)"/>
<path d="" fill="#7F7FFF" transform="translate(0,0)"/>
<path d="" fill="#7F7FFF" transform="translate(0,0)"/>
<path d="" fill="#5555FF" transform="translate(0,0)"/>
<path d="" fill="#5555FF" transform="translate(0,0)"/>
<path d="" fill="#AAAAFF" transform="translate(0,0)"/>
<path d="" fill="#5555FF" transform="translate(0,0)"/>
<path d="" fill="#AAAAFF" transform="translate(0,0)"/>
<path d="" fill="#7F7FFF" transform="translate(0,0)"/>
<path d="" fill="#7F7FFF" transform="translate(0,0)"/>
<path d="" fill="#5555FF" transform="translate(0,0)"/>
<path d="" fill="#AA55FF" transform="translate(0,0)"/>
<path d="" fill="#5555FF" transform="translate(0,0)"/>
<path d="" fill="#AA55FF" transform="translate(0,0)"/>
<path d="" fill="#5555AA" transform="translate(0,0)"/>
<path d="" fill="#FF7FFF" transform="translate(0,0)"/>
<path d="" fill="#5555FF" transform="translate(0,0)"/>
<path d="" fill="#5555FF" transform="translate(0,0)"/>
<path d="" fill="#7F7FFF" transform="translate(0,0)"/>
<path d="" fill="#5555FF" transform="translate(0,0)"/>
<path d="" fill="#5555FF" transform="translate(0,0)"/>
<path d="" fill="#AA55FF" transform="translate(0,0)"/>
<path d="" fill="#7F7FFF" transform="translate(0,0)"/>
</svg>
