<svg width="20" height="20" viewBox="0 0 20 20" fill="none" xmlns="http://www.w3.org/2000/svg">
<path d="M5 13.25H11C11.2125 13.25 11.3906 13.1781 11.5343 13.0343C11.6781 12.8904 11.75 12.7123 11.75 12.4998C11.75 12.2871 11.6781 12.109 11.5343 11.9655C11.3906 11.8218 11.2125 11.75 11 11.75H5C4.7875 11.75 4.60942 11.8219 4.46575 11.9658C4.32192 12.1096 4.25 12.2878 4.25 12.5003C4.25 12.7129 4.32192 12.891 4.46575 13.0345C4.60942 13.1782 4.7875 13.25 5 13.25ZM5 10.25H15C15.2125 10.25 15.3906 10.1781 15.5343 10.0343C15.6781 9.89042 15.75 9.71225 15.75 9.49975C15.75 9.28709 15.6781 9.109 15.5343 8.9655C15.3906 8.82184 15.2125 8.75 15 8.75H5C4.7875 8.75 4.60942 8.82192 4.46575 8.96575C4.32192 9.10959 4.25 9.28775 4.25 9.50025C4.25 9.71292 4.32192 9.891 4.46575 10.0345C4.60942 10.1782 4.7875 10.25 5 10.25ZM5 7.25H13.5C13.7125 7.25 13.8907 7.17809 14.0345 7.03425C14.1782 6.89042 14.25 6.71225 14.25 6.49975C14.25 6.28709 14.1782 6.109 14.0345 5.9655C13.8907 5.82184 13.7125 5.75 13.5 5.75H5C4.7875 5.75 4.60942 5.82192 4.46575 5.96575C4.32192 6.10959 4.25 6.28775 4.25 6.50025C4.25 6.71292 4.32192 6.891 4.46575 7.0345C4.60942 7.17817 4.7875 7.25 5 7.25ZM4.0385 17L2.0365 19.0018C1.752 19.2864 1.42475 19.3504 1.05475 19.1938C0.684917 19.0369 0.5 18.7569 0.5 18.3538V3.80775C0.5 3.30259 0.675 2.875 1.025 2.525C1.375 2.175 1.80258 2 2.30775 2H11.4808C11.6961 2 11.8765 2.075 12.022 2.225C12.1677 2.375 12.2373 2.55642 12.2308 2.76925C12.2244 2.97559 12.1494 3.149 12.0057 3.2895C11.8622 3.42984 11.6873 3.5 11.4808 3.5H2.30775C2.23075 3.5 2.16025 3.53208 2.09625 3.59625C2.03208 3.66025 2 3.73075 2 3.80775V16.8848L3.4 15.5H17.6923C17.7693 15.5 17.8398 15.4679 17.9038 15.4038C17.9679 15.3398 18 15.2693 18 15.1923V8.47125C18 8.25875 18.0719 8.08058 18.2157 7.93675C18.3596 7.79308 18.5378 7.72125 18.7502 7.72125C18.9629 7.72125 19.141 7.79308 19.2845 7.93675C19.4282 8.08058 19.5 8.25875 19.5 8.47125V15.1923C19.5 15.6974 19.325 16.125 18.975 16.475C18.625 16.825 18.1974 17 17.6923 17H4.0385ZM17.0012 5.73075C16.2376 5.73075 15.5882 5.4635 15.053 4.929C14.5177 4.3945 14.25 3.7455 14.25 2.982C14.25 2.21834 14.5173 1.56892 15.0518 1.03375C15.5863 0.498418 16.2353 0.230751 16.9988 0.230751C17.7624 0.230751 18.4118 0.498001 18.947 1.0325C19.4823 1.567 19.75 2.21609 19.75 2.97975C19.75 3.74325 19.4827 4.39267 18.9482 4.928C18.4137 5.46317 17.7647 5.73075 17.0012 5.73075ZM2 3.80775V16.1923V3.5V3.80775Z" fill="white"/>
</svg>
