<svg width="92" height="30" viewBox="0 0 92 30" fill="none" xmlns="http://www.w3.org/2000/svg">
  <!-- Google "G" Icon -->
  <g>
    <!-- Blue section (top right) -->
    <path d="M17 1.5C9.54416 1.5 3.5 7.54416 3.5 15C3.5 16.5 3.8 17.9 4.3 19.2L17 15V1.5Z" fill="#4285F4"/>
    <!-- Red section (top left) -->
    <path d="M17 1.5L4.3 19.2C5.1 21.2 6.4 23 8 24.3L17 15V1.5Z" fill="#EA4335"/>
    <!-- Yellow section (bottom left) -->
    <path d="M17 15L8 24.3C9.8 25.4 11.8 26 14 26C19.5 26 24 21.5 24 16C24 14.5 23.7 13.1 23.1 11.8L17 15Z" fill="#FBBC04"/>
    <!-- Green section (bottom right with horizontal bar) -->
    <path d="M17 15L23.1 11.8C22.3 9.8 21 8 19.4 6.7L17 15Z" fill="#34A853"/>
    <path d="M17 15V19H24C24 21.5 19.5 26 14 26C11.8 26 9.8 25.4 8 24.3L17 15Z" fill="#34A853"/>
  </g>
  
  <!-- Google Text -->
  <text x="38" y="20" font-family="'Product Sans', 'Roboto', Arial, sans-serif" font-size="18" font-weight="400" fill="#5F6368">Google</text>
</svg>
