<svg width="129" height="42" viewBox="0 0 129 42" fill="none" xmlns="http://www.w3.org/2000/svg">
<path d="M20.6479 22.9853C20.6479 24.8034 20.1436 26.2853 19.1351 27.431C18.1334 28.5768 16.8814 29.1496 15.3789 29.1496C14.734 29.1496 14.1679 29.081 13.6808 28.9438C13.1937 28.8066 12.7306 28.6076 12.2915 28.3469C12.2005 28.6869 11.8925 28.9232 11.5406 28.9232H10.5868C9.48219 28.9232 8.58676 28.0278 8.58676 26.9232V14.7627C8.58676 13.7397 9.41611 12.9103 10.4392 12.9103C11.4622 12.9103 12.2915 13.7397 12.2915 14.7627V18.5704C12.861 18.1176 13.4407 17.7506 14.0307 17.4693C14.6276 17.188 15.3137 17.0474 16.0889 17.0474C17.5503 17.0474 18.6754 17.5756 19.4644 18.6322C20.2534 19.6819 20.6479 21.1329 20.6479 22.9853ZM16.8299 23.0573C16.8299 22.0282 16.655 21.2358 16.3051 20.6801C15.9552 20.1244 15.3308 19.8465 14.4321 19.8465C14.0822 19.8465 13.722 19.9014 13.3515 20.0112C12.981 20.1141 12.6277 20.265 12.2915 20.464V26.2681C12.5591 26.3642 12.813 26.4294 13.0531 26.4637C13.2932 26.498 13.5814 26.5151 13.9175 26.5151C14.8986 26.5151 15.6293 26.227 16.1095 25.6507C16.5898 25.0744 16.8299 24.2099 16.8299 23.0573Z" fill="#8D32E2"/>
<path d="M34.8392 27.0708C34.8392 28.0939 34.0099 28.9232 32.9869 28.9232H32.4106C31.7058 28.9232 31.1345 28.3519 31.1345 27.6471C30.4484 28.1686 29.8206 28.5665 29.2512 28.8409C28.6818 29.1085 28.0026 29.2423 27.2136 29.2423C25.9375 29.2423 24.953 28.8752 24.26 28.1411C23.574 27.407 23.2309 26.323 23.2309 24.8891V19.2291C23.2309 18.2003 24.0649 17.3664 25.0936 17.3664C26.1223 17.3664 26.9563 18.2003 26.9563 19.2291V23.0985C26.9563 23.6817 26.9735 24.1688 27.0078 24.5598C27.0489 24.944 27.1381 25.2631 27.2753 25.5169C27.4057 25.7707 27.6012 25.956 27.8619 26.0726C28.1295 26.1892 28.5 26.2476 28.9733 26.2476C29.2889 26.2476 29.6388 26.1892 30.023 26.0726C30.0641 26.0601 30.1051 26.047 30.1459 26.0333C30.7948 25.8148 31.1345 25.1432 31.1345 24.4585V19.2188C31.1345 18.1957 31.9638 17.3664 32.9869 17.3664C34.0099 17.3664 34.8392 18.1957 34.8392 19.2188V27.0708Z" fill="#8D32E2"/>
<path d="M43.5661 24.8377L45.9652 18.0338C46.1063 17.6339 46.4842 17.3664 46.9083 17.3664H48.5223C49.2321 17.3664 49.716 18.0854 49.4487 18.743L43.8401 32.5397C43.6869 32.9166 43.3206 33.1632 42.9137 33.1632H41.083C40.3669 33.1632 39.8829 32.4323 40.1623 31.7729L41.4049 28.8409L37.4427 18.7313C37.1856 18.0754 37.6693 17.3664 38.3737 17.3664H40.1019C40.5201 17.3664 40.8942 17.6267 41.0396 18.0189L43.5661 24.8377Z" fill="#8D32E2"/>
<path d="M67.9108 21.2667C67.9108 23.7091 67.211 25.6507 65.8114 27.0914C64.4118 28.5253 62.4771 29.2423 60.0073 29.2423C57.5443 29.2423 55.613 28.5253 54.2134 27.0914C52.8138 25.6507 52.114 23.7091 52.114 21.2667C52.114 18.8037 52.8138 16.8587 54.2134 15.4317C55.613 13.9978 57.5443 13.2808 60.0073 13.2808C62.4634 13.2808 64.3947 13.9978 65.8011 15.4317C67.2076 16.8587 67.9108 18.8037 67.9108 21.2667ZM62.6727 25.1464C63.0569 24.6799 63.3416 24.131 63.5268 23.4998C63.7121 22.8618 63.8047 22.114 63.8047 21.2564C63.8047 20.3371 63.6983 19.5549 63.4856 18.91C63.273 18.2651 62.9951 17.7437 62.6521 17.3458C62.3022 16.9342 61.8974 16.6357 61.4377 16.4505C60.9849 16.2652 60.5115 16.1726 60.0176 16.1726C59.5167 16.1726 59.0433 16.2618 58.5974 16.4402C58.1583 16.6186 57.7535 16.9136 57.3831 17.3252C57.04 17.7094 56.7587 18.2411 56.5392 18.9203C56.3265 19.5927 56.2202 20.3748 56.2202 21.2667C56.2202 22.1792 56.3231 22.9579 56.5289 23.6028C56.7416 24.2408 57.0194 24.7622 57.3625 25.167C57.7055 25.5718 58.1069 25.8702 58.5665 26.0623C59.0262 26.2544 59.5099 26.3505 60.0176 26.3505C60.5253 26.3505 61.0089 26.2544 61.4686 26.0623C61.9283 25.8634 62.3296 25.5581 62.6727 25.1464Z" fill="#37E9B9"/>
<path d="M79.1075 20.5669C79.1075 20.7488 78.96 20.8962 78.7782 20.8962C78.6204 20.8413 78.3665 20.8002 78.0166 20.7727C77.6667 20.7453 77.3751 20.7316 77.1419 20.7316C76.6136 20.7316 76.1471 20.7659 75.7423 20.8345C75.3375 20.9031 74.9019 21.0197 74.4353 21.1844V27.0708C74.4353 28.0939 73.606 28.9232 72.5829 28.9232C71.5599 28.9232 70.7306 28.0939 70.7306 27.0708V19.2188C70.7306 18.1957 71.5599 17.3664 72.5829 17.3664H72.7373C73.6751 17.3664 74.4353 18.1266 74.4353 19.0644C75.2518 18.3646 75.9618 17.9015 76.5656 17.6751C77.1693 17.4418 77.725 17.3252 78.2327 17.3252C78.3631 17.3252 78.5106 17.3286 78.6753 17.3355C78.9218 17.3458 79.1075 17.553 79.1075 17.7998V20.5669Z" fill="#37E9B9"/>
<path d="M91.9777 25.2596C91.9777 26.4534 91.4425 27.4173 90.3723 28.1514C89.302 28.8786 87.8372 29.2423 85.978 29.2423C84.9489 29.2423 84.0158 29.1462 83.1788 28.9541C82.8542 28.8796 82.5544 28.802 82.2794 28.7213C81.5835 28.5172 81.1618 27.8513 81.1618 27.1261V25.6095C81.1618 25.422 81.3138 25.2699 81.5014 25.2699C81.6866 25.4003 81.8993 25.5443 82.1394 25.7021C82.3864 25.8531 82.7329 26.0177 83.1788 26.1961C83.563 26.3539 83.9987 26.4911 84.4858 26.6077C84.9729 26.7175 85.4943 26.7724 86.05 26.7724C86.7773 26.7724 87.3158 26.6935 87.6657 26.5357C88.0156 26.3711 88.1906 26.1309 88.1906 25.8153C88.1906 25.534 88.0877 25.3317 87.8818 25.2082C87.676 25.0778 87.285 24.9543 86.7087 24.8377C86.4342 24.7759 86.0603 24.7108 85.5869 24.6422C85.1204 24.5667 84.695 24.4775 84.3108 24.3746C83.2612 24.1002 82.4825 23.6748 81.9748 23.0985C81.4671 22.5153 81.2132 21.7915 81.2132 20.9271C81.2132 19.8156 81.7381 18.8929 82.7878 18.1588C83.8443 17.4178 85.2851 17.0474 87.11 17.0474C87.9745 17.0474 88.8012 17.1365 89.5902 17.3149C89.8701 17.3753 90.1284 17.4373 90.365 17.501C91.0405 17.6829 91.4528 18.3212 91.4528 19.0208V20.4743C91.4528 20.6505 91.31 20.7933 91.1338 20.7933C90.585 20.416 89.9572 20.1107 89.2506 19.8774C88.5508 19.6373 87.8407 19.5172 87.1203 19.5172C86.5234 19.5172 86.0192 19.5995 85.6075 19.7642C85.2027 19.9289 85.0004 20.1621 85.0004 20.464C85.0004 20.7384 85.093 20.9477 85.2782 21.0917C85.4634 21.2358 85.8991 21.3799 86.5852 21.524C86.9625 21.5994 87.3673 21.6749 87.7995 21.7504C88.2386 21.819 88.6777 21.9082 89.1168 22.0179C90.091 22.2718 90.8114 22.6731 91.2779 23.222C91.7444 23.764 91.9777 24.4432 91.9777 25.2596Z" fill="#8D32E2"/>
<path d="M105.829 22.5325C105.829 23.2486 105.249 23.8292 104.533 23.8292H99.4745C98.3224 23.8292 97.3303 24.9432 98.1703 25.7319C98.2359 25.7934 98.3054 25.8521 98.3787 25.908C99.0168 26.3882 99.9533 26.6283 101.188 26.6283C101.97 26.6283 102.728 26.4877 103.463 26.2064C104.197 25.9251 104.776 25.6232 105.202 25.3008C105.429 25.3008 105.613 25.4851 105.613 25.7124V27.0753C105.613 27.8 105.176 28.4627 104.485 28.6812C104.058 28.8162 103.645 28.9243 103.246 29.0056C102.505 29.1565 101.686 29.232 100.787 29.232C98.4679 29.232 96.691 28.7106 95.4561 27.6677C94.2211 26.6249 93.6037 25.1396 93.6037 23.2117C93.6037 21.3044 94.1868 19.7951 95.3532 18.6836C96.5263 17.5653 98.1317 17.0062 100.169 17.0062C102.049 17.0062 103.463 17.483 104.409 18.4366C105.356 19.3834 105.829 20.7487 105.829 22.5325ZM102.145 21.6577C102.125 20.8825 101.933 20.2993 101.569 19.9083C101.205 19.5172 100.639 19.3217 99.8709 19.3217C99.1574 19.3217 98.5708 19.5069 98.1112 19.8774C97.6515 20.2479 97.3942 20.8413 97.3393 21.6577H102.145Z" fill="#8D32E2"/>
<path d="M112.148 27.0708C112.148 28.0939 111.319 28.9232 110.296 28.9232C109.273 28.9232 108.443 28.0939 108.443 27.0708V14.7627C108.443 13.7397 109.273 12.9103 110.296 12.9103C111.319 12.9103 112.148 13.7397 112.148 14.7627V27.0708Z" fill="#8D32E2"/>
<path d="M119.352 27.0708C119.352 28.0939 118.523 28.9232 117.5 28.9232C116.476 28.9232 115.647 28.0939 115.647 27.0708V14.7627C115.647 13.7397 116.476 12.9103 117.5 12.9103C118.523 12.9103 119.352 13.7397 119.352 14.7627V27.0708Z" fill="#8D32E2"/>
<path d="M0 32.0685C0.0427147 36.9134 2.48652 39.3144 7.33141 39.2717L13.4229 39.218C13.9631 39.2133 14.3195 39.7787 14.0821 40.264L13.4902 41.4745C13.3217 41.819 13.7325 42.1557 14.0372 41.9229L19.2632 37.931C19.6482 37.6369 19.6431 37.0555 19.2529 36.7682L13.9574 32.869C13.6486 32.6417 13.2438 32.9856 13.4183 33.327L14.0316 34.5269C14.2774 35.008 13.9311 35.5796 13.3908 35.5844L7.29937 35.6381C5.27046 35.6559 4.08371 34.8167 3.73913 33.1203C3.61928 32.5303 3.14561 32.0407 2.54357 32.046L0 32.0685Z" fill="#37E9B9"/>
<path d="M128.093 10.053C128.093 5.20791 125.67 2.78537 120.825 2.78537H114.733C114.193 2.78537 113.842 2.21681 114.083 1.73359L114.686 0.528358C114.857 0.185392 114.45 -0.154925 114.143 0.0751438L108.882 4.02086C108.494 4.31157 108.494 4.89298 108.882 5.18368L114.143 9.1294C114.45 9.35947 114.857 9.01915 114.686 8.67619L114.083 7.47096C113.842 6.98773 114.193 6.41918 114.733 6.41918H120.825C122.854 6.41918 124.033 7.26886 124.363 8.96823C124.478 9.55928 124.947 10.053 125.549 10.053H128.093Z" fill="#37E9B9"/>
</svg>
