<svg width="26" height="25" viewBox="0 0 26 25" fill="none" xmlns="http://www.w3.org/2000/svg">
<path d="M17.7413 16.315C17.7254 16.331 17.7068 16.3469 17.6908 16.3628C17.4172 16.1424 17.1091 15.9405 16.7691 15.7519C16.9657 15.4013 17.0215 14.9736 17.0268 14.6283C17.0321 14.2936 16.9179 13.9669 16.6974 13.7145C16.129 13.0664 16.0413 12.3891 16.0413 12.3891L16.0785 10.6785C16.3415 8.9572 15.2524 8.49236 15.2524 8.49236C15.2524 8.46048 15.2524 8.43126 15.2524 8.39673C13.0371 8.56939 11.6213 7.87877 10.8191 6.52939C10.8191 6.52939 9.15897 7.3847 9.18553 9.03158L9.21741 9.67439C9.25194 10.3385 9.41663 10.9945 9.72209 11.5842C10.0329 12.1845 10.3915 12.6175 10.8218 12.8911L10.7315 14.9285C10.7155 15.2897 10.6358 15.6456 10.4791 15.9724C10.2507 16.4372 9.91069 16.7825 9.47772 17.0216C9.11647 17.2235 8.69147 17.3536 8.216 17.428C8.03803 17.4572 7.85741 17.4652 7.67944 17.4439C7.08975 17.3642 6.61428 17.0136 6.31944 16.5169C5.85194 15.7306 5.84662 14.5831 6.58506 13.595L7.79366 12.3306C7.87334 12.2483 7.9185 12.1367 7.9185 12.0199C7.9185 11.9163 7.88397 11.818 7.81756 11.7383L7.30225 11.0981C7.06319 10.8033 6.93037 10.4341 6.92241 10.0542V10.0197C6.92241 9.67173 7.02866 9.33173 7.22256 9.0422C7.63959 8.42595 7.93709 7.75923 8.08053 7.02877C8.48162 4.97283 9.24662 3.93689 10.5827 4.50001C10.5827 4.50001 11.7833 2.64861 14.4715 3.76955C14.4715 3.76955 16.0652 4.83736 16.2405 6.42314C16.2405 6.42314 16.5805 8.01955 17.2844 9.05017C17.2844 9.05017 18.1265 10.2083 17.1702 11.3531C17.1702 11.3531 16.7824 11.9508 17.388 12.6866C17.6005 12.9442 17.7997 13.2152 17.9512 13.5127C18.331 14.2511 18.6843 15.4225 17.7413 16.315Z" fill="#1E264F"/>
<path d="M15.2577 8.39939C15.2577 8.43126 15.2577 8.46314 15.2577 8.49502C15.2232 10.6094 14.7398 12.2669 13.3957 12.9442C13.1566 13.0638 12.8937 13.1541 12.5988 13.2099C12.3491 13.2577 12.0941 13.271 11.8418 13.247C11.4646 13.2072 11.1299 13.093 10.8298 12.8991C10.4021 12.6255 10.0408 12.1925 9.73006 11.5922C9.42459 10.9999 9.25991 10.3464 9.22537 9.68236L9.1935 9.03955C9.16694 7.39267 10.8271 6.53736 10.8271 6.53736C11.6293 7.88142 13.0451 8.57205 15.2577 8.39939Z" fill="#FC9D7C"/>
<path d="M19.2394 20.4163H5.0285C4.89037 18.7614 5.24366 17.4147 6.32209 16.5195C6.61694 17.0163 7.09506 17.3669 7.68209 17.4466C7.86006 17.4705 8.04334 17.4599 8.21866 17.4306C8.69678 17.3563 9.12178 17.2261 9.48038 17.0242C11.7462 18.0363 15.364 17.4758 16.6443 15.6802C16.6868 15.7014 16.7293 15.7253 16.7718 15.7492C17.1091 15.9378 17.4173 16.1397 17.6935 16.3602C18.9287 17.3456 19.5157 18.6631 19.2394 20.4163Z" fill="#4BB583"/>
<path d="M17.0294 14.6283C17.0241 14.9736 16.9683 15.4013 16.7718 15.7519C16.7293 15.728 16.6894 15.7067 16.6443 15.6828C15.9669 15.3216 15.1754 15.0188 14.2882 14.7638C13.9694 14.6735 13.7224 14.4158 13.648 14.0891L13.393 12.9416C14.7371 12.2642 15.2232 10.6067 15.2551 8.49236C15.2551 8.49236 16.3441 8.9572 16.0812 10.6785L16.044 12.3891C16.044 12.3891 16.129 13.0664 16.7001 13.7145C16.9205 13.9695 17.0348 14.2963 17.0294 14.6283Z" fill="#192144"/>
<path d="M16.6443 15.6828C15.3666 17.4785 11.7462 18.0389 9.48038 17.0269C9.91334 16.7852 10.2533 16.4425 10.4818 15.9777C10.6412 15.6536 10.7182 15.295 10.7341 14.9338L10.8244 12.8964C11.1246 13.0903 11.4619 13.2045 11.8365 13.2444C12.0888 13.271 12.3438 13.255 12.5935 13.2072C12.8883 13.1514 13.154 13.0611 13.3904 12.9416L13.6454 14.0891C13.7171 14.4131 13.9641 14.6708 14.2855 14.7638C15.1754 15.0188 15.9669 15.3216 16.6443 15.6828Z" fill="#E8846D"/>
<path d="M19.2509 5.11368C19.5105 3.68185 19.8674 3.30684 21.2301 3.03411C21.3923 3.00002 21.4897 2.86366 21.4897 2.6932C21.4897 2.52275 21.3923 2.38638 21.2301 2.35229C19.8674 2.07956 19.5105 1.70456 19.2509 0.272729C19.2185 0.102274 19.0887 0 18.9265 0C18.7643 0 18.6345 0.102274 18.602 0.272729C18.3425 1.70456 17.9856 2.07956 16.6228 2.35229C16.4931 2.38638 16.3633 2.52275 16.3633 2.6932C16.3633 2.86366 16.4606 3.00002 16.6228 3.03411C17.9856 3.30684 18.3425 3.68185 18.602 5.11368C18.6345 5.28413 18.7643 5.38641 18.9265 5.38641C19.0887 5.38641 19.2185 5.25004 19.2509 5.11368Z" fill="#8B31E1"/>
<path d="M22.4949 7.49998C21.5864 7.29544 21.3918 7.09089 21.1971 6.13634C21.1646 5.96588 21.0349 5.86361 20.8726 5.86361C20.7104 5.86361 20.5806 5.96588 20.5482 6.13634C20.3535 7.09089 20.1588 7.29544 19.2504 7.49998C19.0881 7.53407 18.9908 7.67044 18.9908 7.84089C18.9908 8.01135 19.0881 8.14772 19.2504 8.18181C20.1588 8.38635 20.3535 8.5909 20.5482 9.54545C20.5806 9.71591 20.7104 9.81818 20.8726 9.81818C21.0349 9.81818 21.1646 9.71591 21.1971 9.54545C21.3918 8.5909 21.5864 8.38635 22.4949 8.18181C22.6571 8.14772 22.7545 8.01135 22.7545 7.84089C22.7545 7.67044 22.6247 7.53407 22.4949 7.49998Z" fill="#8B31E1"/>
<path d="M24.831 4.09109C24.1172 3.95473 23.955 3.78427 23.8252 3.03427C23.7927 2.86381 23.663 2.76154 23.5007 2.76154C23.3385 2.76154 23.2087 2.86381 23.1763 3.03427C23.0465 3.78427 22.8843 3.95473 22.1705 4.09109C22.0082 4.12518 21.9109 4.26155 21.9109 4.432C21.9109 4.60246 22.0082 4.73883 22.1705 4.77292C22.8843 4.90928 23.0465 5.07974 23.1763 5.82974C23.2087 6.0002 23.3385 6.10247 23.5007 6.10247C23.663 6.10247 23.7927 6.0002 23.8252 5.82974C23.955 5.07974 24.1172 4.90928 24.831 4.77292C24.9932 4.73883 25.0906 4.60246 25.0906 4.432C25.0906 4.26155 24.9932 4.12518 24.831 4.09109Z" fill="#8B31E1"/>
<path d="M24.4428 1.70441C24.5401 1.70441 24.605 1.67032 24.6699 1.60213C24.7348 1.53395 24.7673 1.46577 24.7673 1.36349C24.7673 1.26122 24.7348 1.19304 24.6699 1.12486C24.6375 1.09077 24.605 1.05667 24.5726 1.05667C24.5077 1.02258 24.4104 1.02258 24.313 1.05667C24.2806 1.05667 24.2481 1.09077 24.2157 1.12486C24.1508 1.19304 24.1183 1.26122 24.1183 1.36349C24.1183 1.46577 24.1508 1.53395 24.2157 1.60213C24.2806 1.67032 24.3455 1.70441 24.4428 1.70441Z" fill="#8B31E1"/>
</svg>
