<svg width="16" height="16" viewBox="0 0 16 16" fill="none" xmlns="http://www.w3.org/2000/svg">
<path d="M6.88789 1.59254C7.53246 1.05666 8.46754 1.05666 9.11211 1.59254C9.50946 1.92288 10.0331 2.05947 10.5412 1.96533L10.6139 1.95185C11.4133 1.80372 12.2023 2.25634 12.478 3.02116C12.6508 3.50058 13.0343 3.87406 13.5181 4.03419L13.5915 4.05849C14.3544 4.31099 14.8086 5.09338 14.6497 5.88109C14.5499 6.37547 14.6915 6.8886 15.03 7.26247C15.5799 7.86985 15.5799 8.79784 15.03 9.40523C14.6915 9.7791 14.5499 10.2922 14.6497 10.7866C14.8086 11.5743 14.3544 12.3567 13.5915 12.6092L13.5181 12.6335C13.0343 12.7936 12.6508 13.1671 12.478 13.6465C12.2023 14.4114 11.4133 14.864 10.6139 14.7158L10.5412 14.7024C10.0331 14.6082 9.50946 14.7448 9.11211 15.0752C8.46754 15.611 7.53246 15.611 6.88789 15.0752C6.49054 14.7448 5.9669 14.6082 5.45881 14.7024L5.38609 14.7158C4.5867 14.864 3.79766 14.4114 3.52197 13.6465C3.34916 13.1671 2.96572 12.7936 2.48191 12.6335L2.40849 12.6092C1.6456 12.3567 1.19136 11.5743 1.35033 10.7866C1.4501 10.2922 1.30855 9.7791 0.970038 9.40523C0.420106 8.79784 0.420106 7.86985 0.970038 7.26247C1.30855 6.8886 1.4501 6.37547 1.35033 5.88109C1.19136 5.09338 1.6456 4.31099 2.40849 4.05849L2.48191 4.03419C2.96572 3.87406 3.34916 3.50058 3.52197 3.02116C3.79766 2.25634 4.5867 1.80372 5.38609 1.95185L5.45881 1.96533C5.9669 2.05947 6.49054 1.92288 6.88789 1.59254Z" fill="#37E7B6"/>
<ellipse cx="7.99696" cy="8.33355" rx="4.56727" ry="4.37652" fill="#8B31E1"/>
<path d="M13.9643 2.35286C13.8032 2.24843 13.6073 2.21222 13.4196 2.25222C13.2319 2.29222 13.0678 2.40514 12.9633 2.56614L8.90772 8.81761L6.92988 6.98881C6.8601 6.92428 6.77829 6.87414 6.68913 6.84123C6.59997 6.80832 6.5052 6.7933 6.41024 6.79702C6.21844 6.80453 6.03749 6.88792 5.90718 7.02886C5.77687 7.16979 5.70789 7.35672 5.7154 7.54852C5.72291 7.74031 5.8063 7.92128 5.94723 8.05159L8.54414 10.4527C8.54414 10.4527 8.61869 10.5169 8.65319 10.5393C8.73293 10.591 8.82209 10.6266 8.91556 10.6439C9.00904 10.6611 9.10501 10.6599 9.19798 10.64C9.29096 10.6202 9.37912 10.5823 9.45744 10.5284C9.53575 10.4745 9.60269 10.4058 9.65442 10.326L14.1775 3.35388C14.282 3.19285 14.3182 2.99693 14.2782 2.80921C14.2382 2.62149 14.1253 2.45734 13.9643 2.35286Z" fill="white"/>
</svg>
